<?xml version="1.0" encoding="utf-8"?>
<!-- Generator: Adobe Illustrator 19.2.1, SVG Export Plug-In . SVG Version: 6.00 Build 0)  -->
<svg version="1.1" id="Слой_1" xmlns="http://www.w3.org/2000/svg" xmlns:xlink="http://www.w3.org/1999/xlink" x="0px" y="0px"
	 viewBox="0 0 330 276.6" style="enable-background:new 0 0 330 276.6;" xml:space="preserve">
<style type="text/css">
	.st0{fill:#FFFFFF;}
</style>
<title>rudn_logo3</title>
<path class="st0" d="M165,43.3C74.1,43.3,0,86,0,138.4s74.1,95.1,165,95.1s165-42.8,165-95.1S255.9,43.3,165,43.3z M285.7,83.4
	c-11.4,4.5-25.8,8.2-42.4,10.9c-11-19.9-29.1-34.9-50.7-41.9C229.9,56.2,262.7,67.6,285.7,83.4z M167.7,58.8
	C194,59.7,218.1,73.7,232,96c-20.9,2.6-42,3.9-63.1,3.8h-1.2V58.8L167.7,58.8z M137.6,52.4c-20.9,6.8-38.7,21.1-49.8,40.1
	c-15.5-3.2-28.6-7.4-38.6-12.3C71.9,66,102.8,56,137.6,52.4z M159.9,58.9v40.9c-20.4-0.2-40.8-1.9-61-5.1
	C112.5,73.8,135.1,60.5,159.9,58.9L159.9,58.9z M48.6,196.2c10.1-5.2,23.7-9.5,39.8-12.8c13.1,21.7,34.7,36.9,59.6,41.9
	C108.5,222.9,73.5,212.1,48.6,196.2z M160,216.2c-24.4-1.6-46.7-14.4-60.3-34.8c20-3.1,40.1-4.8,60.3-5V216.2L160,216.2z
	 M182.1,225.3c25.6-5,47.8-20.9,60.7-43.6c17.2,2.8,32,6.6,43.7,11.2C261.3,210.6,224.2,222.7,182.1,225.3L182.1,225.3z
	 M167.7,216.3v-39.9h1.2c20.9-0.1,41.7,1.1,62.5,3.7C217.4,201.9,193.6,215.4,167.7,216.3L167.7,216.3z M293.8,187.3
	c-12.7-5.7-28.6-10.5-46.8-14.1c0.1-0.2,0.2-0.4,0.3-0.6c-0.3,0-0.6,0.1-0.9,0.1c-1.2,0-2.3-0.4-3.2-1.1h-0.1l-1.2-0.4
	c-0.1,0-0.3,0-0.4-0.1c-0.4-0.1-0.8-0.2-1.1-0.4l-0.2-0.1c-0.7,0.4-1.6,0.6-2.4,0.6c-0.5,0-1-0.1-1.4-0.2l-0.1,0.3
	c-21.7-3.4-43.6-5.1-65.6-5h-3v-0.6c-1.4,0.1-2.8,0-4.1-0.1c-1.2,0.1-2.4,0.2-3.6,0.3v0.5c-21.9,0.4-43.7,2.7-65.1,6.8
	c-0.1-0.3-0.3-0.6-0.4-0.9c-3.1,0.6-6.3,0.9-9.3,2.1c-0.4,0.2-0.9,0.3-1.4,0.3c0.1,0.3,0.2,0.5,0.3,0.8l0,0
	c-17.3,4-32.1,9.2-43.6,15.3c-19.2-14.5-30.8-32.3-31-51.7h0.9c-0.1-0.4-0.1-0.7-0.1-1.1c0-3,0.2-6,0.5-9h-0.3
	c3.1-16.1,14.1-30.9,30.7-43.2c11.3,5.8,25.7,10.9,42.5,14.8l-0.1,0.2c0.4,0,0.8,0.1,1.1,0.3c3.5,1.2,7.4,0.8,10.9,2.1
	c20.3,3.8,40.9,6,61.6,6.5c0.5-0.1,1-0.2,1.5-0.2H174c0.6,0,1.3,0.1,1.9,0.3c20.4-0.2,40.7-1.9,60.8-5.1l0.2,0.5h0.3
	c0.5-0.4,1.1-0.7,1.7-0.8c2.8-0.8,5.8-0.8,8.8-1.2l-0.2-0.4l0,0c17.6-3.5,33.2-8.2,45.7-13.7c13.5,11.1,22.7,24,26,38
	c0.2,0.5,0.4,1.1,0.4,1.7l0,0.2l0,0v3.1c0.8,1.9,1.1,4,1,6c0,0.4-0.1,0.7-0.2,1.1h0.2C320.3,156.9,310.5,173.5,293.8,187.3
	L293.8,187.3z"/>
<path class="st0" d="M248.6,57.4V35.2c0-6.6-1.6-11-4.9-13.2s-8.4-3.3-15.2-3.3h-18.6V0.1h104.3v18.6h-18.6c-6.6,0-11.6,1.1-15,3.3
	s-5.1,6.7-5.1,13.2v33.2L248.6,57.4L248.6,57.4z"/>
<path class="st0" d="M269.7,212l-31.9,11.5c-1.3,2.5-2.6,5-4.1,7.3c-9.9,16.1-26.3,24.4-49.2,24.9c-24-0.5-40-8.1-48-22.7
	s-12-33.5-12-56.7v-32.5l-3.3,6.6h-4.5l-9-18.3v21.1h-7.5v-33.6h10.1L119,138l5.5-11.6V35.2c0-6.6,1.7-11,5.1-13.2
	c3.4-2.3,8.4-3.4,15-3.3h18.6V0h-0.1H20.9v18.5h18.6c6.8,0,11.9,1.1,15.3,3.4c3.3,2.2,5,6.6,5,13.2V125l-0.1,27v24.3
	c0,35.8,8.6,60.5,25.9,73.9c16.5,13.1,36.2,21.6,57.1,24.5c4.8,0.5,9.4,0.9,13.9,1.2c4.5,0.3,9,0.5,13.4,0.8l4-0.4
	c36.1,0,61.3-8.7,75.7-26.1c9.7-11.5,17-24.8,21.4-39.2L269.7,212z M89.9,150.5c-2.4,2-5.4,3-9.1,3s-7.5-1.3-11.3-3.9l3.1-6
	c3.2,2.2,6,3.4,8.5,3.4c1.5,0,2.7-0.4,3.7-1.1s1.5-1.8,1.5-3.2c0-1.4-0.6-2.5-1.7-3.3c-1.1-0.8-2.7-1.2-4.7-1.2
	c-1.1,0-2.5,0.3-4.5,0.9v-5.5l6.4-7.6H71.4v-6.4h20.5v5.2l-6.9,7.8c2.7,0.4,4.8,1.6,6.2,3.4c1.5,1.8,2.2,3.9,2.2,6.3
	C93.5,145.8,92.3,148.5,89.9,150.5z"/>
<path class="st0" d="M154.9,144.5c1.2,1.6,2.9,2.3,5,2.3s3.8-0.8,5-2.3c1.2-1.6,1.8-3.7,1.8-6.4v-18.5h7.5v18.8
	c0,4.9-1.3,8.6-4,11.2c-2.7,2.6-6.1,3.9-10.3,3.9s-7.6-1.3-10.3-3.9c-2.7-2.6-4.1-6.4-4.1-11.2v-18.8h7.5v18.5
	C153.1,140.8,153.7,142.9,154.9,144.5z"/>
<path class="st0" d="M203.9,136.1h7.5V148c-3.3,3.7-7.9,5.6-13.8,5.6c-4.9,0-9.1-1.6-12.4-4.9s-5-7.4-5-12.4c0-5,1.7-9.1,5.1-12.5
	c3.4-3.3,7.5-5,12.3-5c4.8,0,9,1.6,12.6,4.8l-3.9,5.6c-1.5-1.3-2.9-2.2-4.2-2.7c-1.3-0.5-2.6-0.7-4.1-0.7c-2.8,0-5.2,1-7.2,2.9
	c-2,1.9-2.9,4.5-2.9,7.7c0,3.2,0.9,5.7,2.8,7.6c1.9,1.9,4.1,2.9,6.7,2.9c2.6,0,4.8-0.5,6.5-1.5V136.1z"/>
<path class="st0" d="M218.1,119.6h7.5v33.6h-7.5V119.6z"/>
<path class="st0" d="M241.7,126.3c-0.7,0.6-1.1,1.4-1.1,2.4c0,1,0.4,1.8,1.3,2.3c0.9,0.6,2.9,1.3,6.1,2c3.2,0.8,5.7,2,7.4,3.5
	c1.8,1.6,2.6,3.9,2.6,6.9s-1.1,5.4-3.4,7.3c-2.3,1.9-5.2,2.8-8.9,2.8c-5.3,0-10.1-2-14.4-5.9l4.5-5.5c3.6,3.2,7,4.8,10,4.8
	c1.4,0,2.5-0.3,3.2-0.9c0.8-0.6,1.2-1.4,1.2-2.4c0-1-0.4-1.8-1.2-2.4s-2.5-1.2-4.9-1.8c-3.9-0.9-6.8-2.1-8.6-3.6
	c-1.8-1.5-2.7-3.8-2.7-7c0-3.2,1.1-5.6,3.4-7.4s5.1-2.6,8.6-2.6c2.2,0,4.5,0.4,6.7,1.2s4.2,1.9,5.9,3.3l-3.8,5.5
	c-2.9-2.2-5.9-3.3-9-3.3C243.4,125.4,242.4,125.7,241.7,126.3z"/>
<polygon class="st0" points="127.8,119.6 124.5,126.5 124.5,143.9 130.3,132 130.3,153.1 137.8,153.1 137.8,119.6 "/>
</svg>
