<?xml version="1.0" encoding="UTF-8"?>
<!DOCTYPE svg PUBLIC "-//W3C//DTD SVG 1.1//EN" "http://www.w3.org/Graphics/SVG/1.1/DTD/svg11.dtd">
<!-- Creator: CorelDRAW X6 -->
<svg xmlns="http://www.w3.org/2000/svg" xml:space="preserve" width="19.3675cm" height="16.0514cm" version="1.1" style="shape-rendering:geometricPrecision; text-rendering:geometricPrecision; image-rendering:optimizeQuality; fill-rule:evenodd; clip-rule:evenodd"
viewBox="0 0 19368 16051"
 xmlns:xlink="http://www.w3.org/1999/xlink">
 <defs>
  <style type="text/css">
   <![CDATA[
    .fil3 {fill:#263F6F}
    .fil6 {fill:#2B2A29}
    .fil2 {fill:#5D9E3D}
    .fil1 {fill:#8ABE33}
    .fil0 {fill:#CCD617}
    .fil4 {fill:#FAF0B4}
    .fil5 {fill:#2B2A29;fill-rule:nonzero}
   ]]>
  </style>
 </defs>
 <g id="Layer_x0020_1">
  <metadata id="CorelCorpID_0Corel-Layer"/>
  <path class="fil0" d="M234 3974c1113,567 1823,1546 1945,3128 -785,-789 -1451,-1798 -1945,-3128z"/>
  <path class="fil0" d="M19134 4127c-1113,567 -1839,1562 -1962,3143 784,-789 1468,-1813 1962,-3143z"/>
  <path class="fil1" d="M245 6735c56,276 142,524 258,740 727,1352 2237,1651 2434,1389l-2692 -2129z"/>
  <path class="fil1" d="M19123 6888c-56,276 -142,524 -257,740 -727,1352 -2238,1651 -2434,1389l2692 -2129z"/>
  <path class="fil0" d="M4073 8540c1142,244 2020,958 2512,2357l-2512 -2357z"/>
  <path class="fil0" d="M15295 8693c-1142,244 -2020,958 -2512,2357l2512 -2357z"/>
  <path class="fil0" d="M5000 8596c1108,371 1900,1179 2232,2625l-2232 -2625z"/>
  <path class="fil0" d="M14369 8749c-1108,371 -1900,1179 -2232,2625l2232 -2625z"/>
  <path class="fil0" d="M2771 3762c642,1151 691,2427 -131,3885l131 -3885z"/>
  <path class="fil0" d="M16597 3915c-642,1151 -690,2427 131,3886l-131 -3886z"/>
  <path class="fil0" d="M1176 3000c967,896 1407,2095 1076,3736l-1076 -3736z"/>
  <path class="fil0" d="M18192 3153c-966,896 -1406,2095 -1076,3736l1076 -3736z"/>
  <path class="fil0" d="M1174 9481c1285,-291 2523,24 3690,1225l-3690 -1225z"/>
  <path class="fil0" d="M18195 9634c-1286,-291 -2523,24 -3690,1225l3690 -1225z"/>
  <path class="fil2" d="M1174 9481c163,273 347,505 552,690 912,831 2052,922 2673,778l672 48 180 -90 -408 -204c2,-3 3,-6 4,-10l-3672 -1213z"/>
  <path class="fil2" d="M18195 9634c-163,273 -348,505 -552,691 -817,926 -2190,1094 -2941,820l-1703 387 526 -259 1000 -416c-1,-4 -3,-7 -3,-10l3673 -1213z"/>
  <path class="fil0" d="M5185 13043c1086,-721 2410,-848 3749,50 -1252,-145 -2546,-192 -3749,-50z"/>
  <path class="fil2" d="M5119 13043c228,209 541,350 780,464 152,72 308,129 466,174l-1104 199c274,162 546,278 815,344 376,92 736,110 1068,77l-565 486 -269 18 -275 243c-296,376 -236,430 -231,561 22,564 432,310 955,-553 433,-369 879,-701 1336,-997 279,-119 510,-265 677,-408 270,-151 543,-290 820,-419 981,582 1906,1264 2788,2022l161 -36 18 251 377 450c335,252 503,144 503,-323l-503 -629 -180 36c-308,-223 -618,-441 -930,-654 970,229 1807,23 1865,-219l-1208 -293c961,-81 1665,-571 1652,-823 -1360,-45 -2800,99 -4016,246 91,73 334,47 426,107l-435 -106c-86,-50 -171,-99 -257,-148 316,-138 656,-276 982,-388l-432 -112c-269,119 -536,239 -798,362 -347,-192 -698,-372 -1052,-541l-521 -19c452,206 892,433 1321,679 -33,16 -67,32 -100,48 -1194,-260 -2914,-352 -4137,-100z"/>
  <path class="fil0" d="M5261 13880c991,-869 2229,-1183 3827,-685l-3827 685z"/>
  <path class="fil0" d="M10129 13258c1101,-724 2513,-953 4028,-239 -1421,-4 -2943,99 -4028,239z"/>
  <path class="fil3" d="M9449 3499l0 -1441c-900,58 -1685,547 -2151,1262 632,104 1358,167 2151,180zm0 1031l0 -678c-837,-20 -1623,-106 -2316,-242 -139,283 -232,594 -268,920l2584 0zm0 1323l0 -966 -2600 0c9,433 116,842 302,1204 689,-134 1469,-218 2298,-238zm0 1754l0 -1403c-784,13 -1502,74 -2128,176 468,695 1243,1169 2128,1226zm273 -1405l0 1410c941,-32 1766,-534 2246,-1278 -664,-86 -1409,-131 -2204,-131l-42 0zm0 -1316l0 963c35,0 70,0 105,0 826,0 1610,63 2313,177 166,-347 262,-733 269,-1140l-2687 0zm0 -1031l0 675 2671 0c-33,-302 -115,-590 -237,-855 -708,116 -1497,181 -2330,181 -35,0 -70,0 -105,0zm0 -1801l0 1448c14,0 28,0 42,0 804,0 1558,-47 2227,-134 -476,-764 -1313,-1283 -2269,-1314zm-2819 1192c388,-664 1012,-1175 1756,-1416 -1228,124 -2316,479 -3116,981 351,175 812,322 1360,435zm-415 1283c34,-354 126,-691 268,-1001 -592,-139 -1101,-317 -1499,-523 -586,434 -973,956 -1083,1525l2314 0zm285 1642c-185,-392 -291,-827 -299,-1285l-2333 0c8,683 415,1314 1094,1824 404,-213 927,-396 1537,-538zm2258 1759c-892,-173 -1653,-723 -2108,-1478 -569,116 -1046,269 -1404,451 882,561 2120,941 3512,1026zm3340 -1540c-449,786 -1226,1362 -2142,1539 1485,-92 2794,-519 3683,-1143 -411,-164 -935,-298 -1541,-396zm413 -1505c-7,429 -101,837 -264,1208 641,126 1202,295 1651,496 588,-488 934,-1074 942,-1704l-2329 0zm-248 -1280c123,289 202,599 234,923l2310 0c-101,-518 -431,-997 -931,-1407 -441,195 -989,360 -1613,483zm-1935 -1776c766,249 1405,784 1789,1479 586,-96 1093,-225 1495,-384 -812,-562 -1968,-962 -3285,-1095zm-974 -321c3206,0 5821,1507 5821,3356 0,1848 -2616,3356 -5821,3356 -3206,0 -5821,-1508 -5821,-3356 0,-1849 2615,-3356 5821,-3356z"/>
  <path class="fil3" d="M12576 2004l0 -782c0,-233 -58,-388 -174,-467 -117,-79 -295,-118 -537,-118l-656 0 0 -655 3681 0 0 655 -655 0c-233,0 -409,39 -531,118 -121,79 -181,235 -181,467l0 1172 -948 -389zm-3012 -2023l0 655 -656 0c-232,0 -409,39 -530,118 -121,79 -181,235 -181,467l0 4978c0,817 142,1485 425,2001 283,516 848,783 1694,802 808,-19 1387,-311 1736,-879 52,-84 100,-171 144,-259l1125 -405 44 -36c-147,491 -399,952 -755,1383 -506,614 -1396,920 -2670,920l-140 14c-158,-10 -316,-19 -474,-28 -158,-9 -321,-23 -489,-42 -734,-103 -1406,-391 -2015,-865 -609,-474 -913,-1343 -913,-2607l0 -4978c0,-233 -58,-388 -175,-467 -116,-79 -295,-118 -537,-118l-655 0 0 -655 5020 0z"/>
  <path class="fil2" d="M2771 3762c-216,234 -386,476 -507,725 -196,404 -289,809 -314,1188l-773 -2668c-133,289 -220,572 -258,846 -201,1458 648,2588 1124,2828 38,146 84,280 136,398 -796,-726 -1421,-1795 -1929,-3098 -46,298 -37,576 -16,837 132,1647 1609,2464 1950,2274 61,140 130,257 198,346 279,671 658,1267 1123,1801 -198,-87 -304,-171 -482,-219l-12 5c5,-6 10,-13 14,-19l16 8c-829,-1226 -1856,-1693 -3021,-1640 100,263 224,493 373,687 754,981 1910,1180 2406,1068 306,104 640,255 1001,431 480,490 1037,924 1656,1311l253 -84c208,92 401,143 553,157 434,284 840,367 960,262l-2224 -2608c-2,282 31,542 100,777 19,63 39,124 62,185l-1088 -1018c30,280 91,535 187,761 158,376 380,681 626,921 -298,-223 -573,-463 -828,-718 -226,-464 -359,-933 -187,-1276 44,32 99,50 157,50 152,0 276,-125 276,-277 0,-152 -124,-276 -276,-276 -153,0 -277,125 -277,276 0,49 13,95 36,135 -164,253 -101,731 84,1173 -40,-43 -79,-85 -117,-129 -190,-436 -318,-855 -255,-1220 7,1 16,1 23,1 153,0 277,-124 277,-277 0,-152 -124,-277 -277,-277 -153,0 -277,124 -277,277 0,112 67,209 164,253 -24,321 20,654 150,1016 -337,-409 -633,-849 -895,-1315l-18 -13 125 -3863z"/>
  <path class="fil2" d="M16597 3915c216,234 386,476 507,725 196,404 290,810 314,1188l773 -2668c133,289 220,572 258,846 201,1458 -649,2588 -1125,2828 -38,146 -97,298 -149,416 796,-726 1434,-1813 1942,-3116 46,298 38,576 16,837 -126,1635 -1606,2495 -2008,2425 -62,140 -72,105 -141,194 -279,671 -658,1267 -1123,1801 198,-87 304,-171 482,-219l12 5c-5,-6 -10,-13 -14,-20l-15 9c829,-1226 1857,-1693 3021,-1641 -100,263 -224,493 -373,688 -754,980 -1924,1306 -2421,1194 -306,104 -739,284 -1072,402 -480,490 -952,825 -1572,1212 -371,358 -1386,864 -1766,335l2224 -2608c2,282 -31,542 -100,777 -19,63 -39,124 -61,185l1088 -1018c-30,280 -92,535 -187,761 -159,376 -380,680 -626,920 298,-223 574,-463 828,-718 227,-464 359,-932 187,-1275 -44,31 -99,49 -157,49 -153,0 -277,-125 -277,-277 0,-152 124,-277 277,-277 152,0 277,124 277,277 0,49 -13,95 -36,135 163,253 101,731 -85,1173 40,-42 79,-85 117,-129 190,-436 318,-855 255,-1219 -8,0 -15,1 -23,1 -152,0 -277,-124 -277,-277 0,-153 125,-277 277,-277 152,0 277,124 277,277 0,112 -67,209 -164,252 24,321 -21,654 -150,1016 337,-409 633,-849 895,-1315l18 -12 -125 -3864z"/>
  <path class="fil0" d="M0 7369c404,-22 765,-17 1097,45l-851 -679c1118,131 2009,757 2628,2009 54,84 107,172 161,266l-3034 -1640z"/>
  <path class="fil0" d="M19369 7522c-404,-22 -765,-17 -1097,45l851 -679c-1118,131 -2009,757 -2628,2008 -54,84 -108,172 -161,266l3035 -1640z"/>
  <path class="fil4" d="M4808 13859l622 408c228,25 330,-82 305,-324l-557 -359c1350,-986 1452,1899 -174,744 -73,-121 -193,-243 -197,-469z"/>
  <path class="fil5" d="M5031 14303c251,177 473,267 661,267 150,0 275,-60 361,-174 77,-102 119,-242 119,-394 0,-294 -162,-593 -471,-593 -138,0 -293,58 -460,173l527 340 2 17c13,128 -8,225 -64,286 -58,65 -152,91 -280,76l-16 -6 -562 -368c19,131 81,224 137,306 16,23 31,46 45,69zm661 338c-204,0 -443,-95 -708,-284l-10 -11c-14,-24 -30,-47 -47,-72 -67,-100 -151,-224 -155,-415l-1 -67 671 440c99,9 170,-8 212,-54 40,-44 55,-116 48,-215l-586 -377 42 -30c196,-144 379,-216 544,-216 355,0 541,334 541,664 0,167 -48,322 -134,436 -100,132 -244,202 -417,202z"/>
  <path class="fil4" d="M5191 13592l546 348c49,305 -151,469 -408,272l-336 -234c9,-155 78,-281 198,-386z"/>
  <path class="fil5" d="M5030 13960l319 222c123,94 240,104 305,27 46,-54 64,-144 50,-249l-510 -325c-98,94 -152,200 -165,324zm510 373c-73,0 -153,-32 -232,-93l-351 -244 1 -20c10,-161 78,-295 210,-411l20 -18 582 371 2 16c22,134 -1,248 -64,322 -43,50 -101,77 -168,77z"/>
  <path class="fil4" d="M5414 14269c-530,-301 -110,-1129 526,-826l-772 -377c-186,165 -319,463 -341,812l586 391z"/>
  <path class="fil5" d="M4864 13860l315 210c-50,-110 -56,-238 -13,-364 74,-216 264,-357 487,-364l-479 -234c-172,163 -287,441 -310,752zm532 440c-25,-14 -49,-30 -71,-47l-534 -356 1 -21c21,-347 153,-660 352,-836l18 -16 21 11 772 377 -31 64c-87,-41 -172,-62 -255,-62 -199,0 -371,124 -437,316 -47,137 -37,332 133,466l67 45 -37 60z"/>
  <path class="fil1" d="M13186 11601c308,-36 587,-18 884,22 52,-50 122,-80 199,-80 157,0 286,128 286,286 0,157 -129,286 -286,286 -157,0 -286,-129 -286,-286 0,-30 5,-60 13,-87 -172,-18 -391,-19 -562,-38l-248 -103z"/>
  <path class="fil4" d="M3346 13207c-761,-2918 5400,-3092 8375,-2117 907,297 1650,575 1987,713 1126,422 1936,389 2679,92 130,-87 217,-177 261,-268 44,-91 47,-188 13,-282 -36,-102 -117,-189 -220,-239l-235 159c349,5 345,239 286,356 -215,336 -927,-151 -217,-571 -12,-8 394,-244 434,-269 319,-42 465,76 519,226 335,930 -1580,1819 -1990,1840 976,-292 1611,-385 2012,-341 -2274,1498 -2885,1194 -5082,531 -2357,-698 -7194,-1146 -7294,728 -10,199 3,309 82,481 29,63 134,160 171,167 -600,-500 -1269,-863 -1780,-1205z"/>
  <path class="fil5" d="M3377 13185c150,100 313,202 486,310 322,201 681,425 1027,685 -54,-143 -60,-253 -51,-417 47,-880 1145,-1365 3092,-1365 1340,0 3007,237 4248,605 113,34 221,67 326,99 852,260 1467,447 2063,447 727,0 1456,-286 2577,-1015 -347,-18 -845,61 -1477,229 -179,71 -336,115 -427,120l-12 -69c146,-44 287,-84 421,-119 754,-299 1792,-994 1546,-1675 -60,-165 -220,-235 -474,-203 -12,7 -34,20 -62,37 -74,44 -247,146 -323,195l6 4 -50 29c-220,131 -320,279 -282,419 30,111 151,198 274,198 53,0 127,-17 178,-96 24,-49 41,-133 1,-199 -39,-65 -128,-100 -257,-102l-19 -65 252 -170 18 9c112,54 199,148 238,259 37,105 32,212 -15,309 -47,97 -139,192 -273,282 -388,156 -766,230 -1162,230 -471,0 -978,-104 -1549,-318 -378,-155 -1138,-435 -1985,-713 -1016,-333 -2424,-532 -3765,-532 -2130,0 -3708,461 -4328,1264 -289,374 -369,821 -240,1329zm1743 1262c-42,-8 -109,-70 -146,-112 -381,-301 -789,-555 -1149,-780 -177,-111 -345,-215 -499,-318l-11 -7 -3 -13c-140,-536 -56,-1008 249,-1403 634,-821 2232,-1292 4384,-1292 1348,0 2764,200 3787,536 849,278 1611,559 1989,714 563,211 1061,313 1523,313 387,0 756,-72 1129,-221 117,-79 201,-165 242,-251 39,-80 43,-168 12,-254 -31,-87 -97,-163 -184,-210l-136 92c124,22 185,78 215,127 55,91 35,203 0,271 -55,86 -139,131 -239,131 -156,0 -303,-107 -342,-250 -27,-100 -23,-296 308,-495 25,-25 107,-75 373,-232 34,-20 59,-35 68,-40l14 -5c45,-6 87,-9 128,-9 278,0 387,140 429,258 224,622 -525,1244 -1237,1605 527,-120 932,-162 1229,-130l16 65c-1184,780 -1942,1084 -2703,1084 -606,0 -1226,-189 -2083,-450 -105,-32 -213,-65 -326,-99 -1234,-366 -2894,-602 -4228,-602 -1102,0 -2960,169 -3021,1298 -10,185 -1,291 78,464 7,14 19,33 36,52 42,33 84,67 125,102l-29 62z"/>
  <path class="fil4" d="M15239 12851c746,-295 1223,-487 2028,-784 689,-255 1398,49 1836,578l-927 709c-77,-377 -395,-664 -957,-806 -463,-118 -1129,85 -1981,303z"/>
  <path class="fil5" d="M16913 12478c118,0 221,12 316,36 535,136 869,404 970,779l854 -653c-340,-394 -815,-629 -1277,-629 -169,0 -335,30 -496,89 -599,221 -1013,383 -1497,574 436,-111 817,-196 1131,-196zm1240 938l-11 -55c-77,-375 -399,-644 -931,-779 -89,-22 -186,-33 -298,-33 -369,0 -842,123 -1389,265 -90,23 -182,47 -277,71l-22 -67 229 -91c627,-248 1080,-428 1800,-694 168,-62 343,-94 520,-94 494,0 1001,255 1356,682l24 29 -1001 765z"/>
  <path class="fil5" d="M16088 11251l-56 -44c106,-136 256,-147 401,-137l-4 70c-176,-12 -271,20 -341,110zm-824 1636l-26 -66c1095,-422 1504,-821 1411,-1378l70 -12c100,597 -322,1019 -1456,1456z"/>
  <path class="fil4" d="M16210 11266l226 -161c158,61 242,182 251,394l-307 229c263,-174 143,-471 -169,-461z"/>
  <path class="fil5" d="M16310 11238c114,21 200,87 235,180 16,44 19,90 9,135l97 -72c-11,-174 -76,-279 -210,-337l-130 93zm89 519l-41 -58 39 -29c78,-66 108,-151 81,-227 -32,-87 -129,-142 -253,-142l-14 0 -21 -64 241 -172 18 7c175,68 265,207 274,425l1 19 -282 210c-13,11 -27,21 -42,31z"/>
  <path class="fil0" d="M10117 13270c1851,-97 2796,-1 3595,871 -1212,-293 -2463,-578 -3595,-871z"/>
  <path class="fil0" d="M15748 7721c43,0 77,34 77,78 0,43 -34,77 -77,77 -43,0 -77,-35 -77,-77 0,-43 34,-78 77,-78z"/>
  <path class="fil0" d="M3471 7509c43,0 77,35 77,78 0,43 -34,77 -77,77 -43,0 -78,-34 -78,-77 0,-43 35,-78 78,-78z"/>
  <path class="fil0" d="M4064 7890c43,0 77,35 77,78 0,43 -34,78 -77,78 -43,0 -77,-35 -77,-78 0,-43 34,-78 77,-78z"/>
  <path class="fil0" d="M15240 8046c43,0 77,35 77,78 0,43 -34,78 -77,78 -43,0 -78,-35 -78,-78 0,-43 35,-78 78,-78z"/>
  <path class="fil0" d="M14253 11652c51,0 93,42 93,95 0,52 -41,95 -93,95 -51,0 -92,-43 -92,-95 0,-53 41,-95 92,-95z"/>
  <path class="fil6" d="M8426 11744c0,45 15,77 44,97 29,20 62,29 99,29l11 0c3,0 7,-1 11,-2 22,-2 43,-7 63,-15 21,-8 38,-17 53,-28l0 -193c-2,-1 -6,-3 -10,-4 -4,-2 -8,-3 -13,-6 -13,-4 -29,-8 -47,-11 -19,-4 -38,-5 -59,-5l-12 0c-35,2 -66,13 -95,32 -29,19 -44,54 -44,105zm-17 -504c11,-7 23,-12 35,-16 12,-5 24,-9 36,-12 17,-4 33,-7 50,-9 17,-2 33,-4 50,-4 25,0 49,3 72,8 24,5 43,13 60,25 31,20 54,50 70,89 15,40 23,89 23,144l0 512 -94 0 0 -36c-17,14 -40,26 -71,36 -30,10 -62,15 -95,15l-21 0c-51,-4 -98,-25 -141,-61 -43,-37 -64,-98 -64,-187 0,-95 26,-162 78,-201 52,-39 110,-59 172,-59 6,0 13,1 19,1 7,1 13,1 19,1 16,2 33,5 50,10 17,4 33,9 47,15 0,-62 -5,-105 -15,-129 -10,-24 -25,-41 -45,-51 -6,-2 -12,-4 -18,-6 -6,-2 -13,-4 -18,-5 -6,-1 -12,-2 -18,-3 -7,0 -13,-1 -19,-1 -24,0 -49,5 -77,14 -27,10 -57,24 -88,43l0 -133z"/>
  <polygon class="fil6" points="8157,11137 8257,11137 8257,11010 8157,11010 "/>
  <polygon class="fil6" points="8158,11978 8257,11978 8257,11219 8158,11219 "/>
  <path class="fil6" d="M7775 11335l-73 2 -2 -118 74 -2 -1 -111 99 -44 2 152 196 -4 1 118 -195 5 5 447c0,24 8,42 23,54 15,12 33,18 54,17 8,0 17,-1 26,-3 9,-2 18,-5 28,-10 10,-4 21,-10 30,-16 11,-6 21,-14 30,-22l49 102c-18,15 -37,29 -57,41 -21,12 -41,21 -63,27 -12,3 -24,6 -36,8 -12,2 -23,3 -35,3 -38,1 -72,-10 -100,-33 -29,-23 -45,-63 -49,-120l-7 -492z"/>
  <path class="fil6" d="M7277 11314c16,-21 34,-39 54,-53 21,-14 41,-25 62,-32 10,-3 19,-5 29,-7 10,-2 20,-3 29,-4l2 0c3,0 5,0 7,0 2,0 4,0 6,0 46,1 88,20 127,56 38,37 59,89 60,159l14 554 -99 5 -13 -537c-1,-38 -13,-68 -36,-88 -23,-21 -50,-30 -82,-29 -8,1 -16,2 -25,4 -8,2 -17,5 -25,9 -20,8 -39,22 -58,40 -18,18 -34,40 -47,69l13 546 -100 5 -19 -759 101 -5 1 69z"/>
  <path class="fil6" d="M6817 11385c-9,1 -19,3 -28,6 -9,3 -19,7 -28,13 -20,12 -39,28 -57,50 -17,21 -31,48 -40,80l326 -33c-12,-28 -28,-50 -47,-68 -19,-17 -40,-30 -61,-38 -10,-5 -20,-8 -30,-9 -11,-2 -21,-2 -29,-1l-2 0 -2 0zm-167 271c0,1 0,3 0,5 0,2 0,5 0,7 -1,2 -1,4 -1,6 0,1 0,4 0,6 1,10 2,20 3,30 2,10 3,21 5,31 12,53 34,101 66,144 33,42 73,62 122,58l5 -1c43,-4 79,-21 109,-50 30,-29 57,-69 81,-118l75 89c-34,67 -73,115 -116,145 -43,31 -90,48 -142,54l-11 3c-94,5 -168,-32 -221,-110 -53,-78 -82,-170 -87,-276 -1,-7 -1,-13 -1,-21 0,-7 0,-14 1,-22 3,-86 26,-166 71,-242 44,-75 111,-118 199,-126 93,-9 165,21 218,92 52,70 82,153 89,247l-467 47z"/>
  <polygon class="fil6" points="6433,11125 6442,11252 6344,11266 6334,11139 "/>
  <polygon class="fil6" points="6405,12103 6349,11348 6448,11333 6504,12087 "/>
  <path class="fil6" d="M6328 12031c-19,29 -41,55 -66,76 -25,21 -51,37 -79,50 -5,2 -10,3 -15,6 -5,3 -11,5 -16,6 -75,25 -148,14 -221,-32 -73,-46 -123,-133 -150,-261 -27,-129 -17,-236 29,-319 46,-84 107,-138 182,-162 7,-3 15,-5 23,-7 7,-2 15,-3 23,-5 26,-4 53,-4 80,-1 27,4 53,12 80,23l-17 127c-4,-2 -9,-4 -14,-5 -5,-1 -10,-3 -14,-5 -23,-6 -45,-9 -66,-9 -21,0 -41,4 -59,9 -54,18 -94,55 -121,114 -28,58 -33,127 -17,205 16,79 48,134 93,167 47,32 97,40 150,22 23,-8 45,-19 67,-35 23,-16 44,-36 65,-61l64 98z"/>
  <path class="fil6" d="M5525 11471c-42,1 -79,5 -112,13 -33,8 -61,18 -86,30 -42,21 -71,47 -87,77 -15,30 -19,58 -12,82 1,4 3,8 4,11 2,3 4,6 6,10 11,16 27,28 49,36 23,8 50,8 82,2 71,-14 137,-10 201,13 64,22 112,76 146,161 1,2 1,4 2,7 1,2 2,5 4,8 1,3 1,6 2,8 1,3 1,5 2,7 24,81 21,163 -10,245 -30,82 -87,144 -170,185 -34,17 -73,30 -116,38 -43,8 -90,10 -142,4l-51 -162c8,2 18,3 27,5 9,2 19,3 28,4 13,1 26,2 39,3 13,1 25,2 35,1 27,-1 52,-5 75,-9 23,-5 43,-12 62,-21 50,-25 83,-61 100,-107 17,-46 19,-94 4,-144 -1,-2 -1,-4 -2,-5 0,-2 -1,-3 -1,-4 -12,-30 -33,-53 -63,-70 -30,-17 -71,-22 -123,-17 -74,5 -138,-1 -193,-18 -54,-17 -91,-62 -114,-135 0,-1 -1,-2 -1,-3 0,-1 0,-1 0,-2l-1 -2c1,-1 1,-3 0,-5 -22,-82 -14,-150 24,-206 37,-56 85,-98 144,-128 5,-3 10,-4 15,-7 6,-3 11,-5 17,-7 29,-12 58,-21 87,-26 30,-5 58,-8 83,-8l45 134z"/>
  <path class="fil6" d="M14521 12527c-7,-5 -13,-10 -19,-15 -6,-5 -13,-9 -20,-13 -19,-13 -38,-24 -58,-32 -20,-8 -40,-13 -62,-16 -21,-3 -41,0 -61,7 -20,7 -33,18 -40,31 -1,3 -2,4 -3,7 -1,3 -2,5 -2,9 -1,1 -2,2 -2,4l0 4c0,4 0,6 0,9 0,3 1,6 1,10 3,15 11,29 22,44 12,15 29,27 50,36 67,26 121,60 163,103 42,43 62,104 58,185l-1 15c-5,72 -29,127 -72,163 -44,37 -99,52 -167,45l-13 0c-19,-4 -38,-9 -58,-16 -21,-7 -41,-15 -61,-25 -17,-9 -34,-20 -51,-32 -17,-12 -33,-26 -49,-41l50 -127c38,32 72,58 104,78 31,20 60,32 84,36 37,4 67,-4 88,-24 21,-19 33,-42 34,-69 0,-3 0,-4 1,-6 0,-2 0,-4 -1,-7 0,-25 -10,-50 -28,-75 -18,-25 -44,-45 -79,-59 -70,-37 -117,-76 -144,-118 -26,-41 -37,-88 -34,-139 4,-54 27,-96 68,-126 41,-30 89,-42 144,-35 22,3 42,7 62,12 19,5 38,11 56,19 12,6 26,13 38,20 12,7 26,15 39,24l-39 115z"/>
  <path class="fil6" d="M13922 12987c-36,18 -70,29 -103,35 -32,5 -62,6 -88,1 -60,-10 -105,-41 -136,-92 -31,-51 -45,-106 -40,-166l46 -534 99 18 -41 480c-5,58 3,102 25,132 23,30 51,48 83,54 7,1 14,2 21,2 7,1 15,0 22,-1 21,-3 44,-9 65,-20 22,-11 41,-25 58,-43l49 -555 98 17 -64 754 -99 -18 4 -64z"/>
  <path class="fil6" d="M13090 12875l-98 -22 56 -512c5,-41 -4,-77 -25,-108 -22,-31 -49,-50 -81,-57 -6,-1 -12,-2 -19,-3 -6,-1 -13,-1 -19,1 -18,3 -37,10 -55,22 -19,12 -36,29 -52,53l-60 546 -98 -22 83 -749 98 22 -8 68c5,-4 10,-8 15,-12 5,-4 10,-7 15,-11 25,-17 49,-28 74,-33 23,-4 48,-4 72,1 34,9 63,25 87,49 24,23 43,55 55,93 23,-21 47,-36 71,-45 24,-10 48,-15 71,-16 12,-1 23,-1 35,0 12,1 22,3 35,5 50,12 91,43 122,94 31,51 44,108 38,169l-61 547 -98 -22 57 -517c4,-38 -4,-73 -26,-103 -21,-30 -48,-48 -79,-55 -5,-1 -10,-2 -15,-3 -5,-1 -10,0 -16,1 -19,0 -39,6 -59,18 -21,12 -39,30 -56,54l-61 548z"/>
  <path class="fil6" d="M12217 12390c-7,44 3,80 28,108 25,28 56,47 93,58 4,1 8,3 10,4 4,1 7,1 12,1 22,4 43,6 64,4 21,-2 39,-6 55,-12l28 -189c-2,-2 -5,-4 -9,-7 -3,-3 -8,-6 -12,-9 -12,-8 -27,-17 -44,-26 -18,-9 -37,-16 -57,-22 -2,-1 -4,-1 -6,-2 -2,-1 -4,-1 -6,-2 -34,-8 -66,-7 -97,3 -31,10 -51,40 -58,90zm56 -498c12,-3 25,-5 37,-6 13,-1 25,-1 37,0 17,1 34,3 51,5 17,3 33,7 49,12 24,7 48,17 70,29 21,12 40,26 55,42 27,29 45,65 55,109 9,44 10,94 2,148l-74 500 -92 -28 5 -36c-19,9 -43,14 -74,15 -31,1 -62,-4 -96,-14 -3,-1 -7,-3 -10,-4 -4,-1 -6,-2 -10,-3 -49,-20 -92,-53 -129,-102 -36,-48 -48,-116 -35,-202 14,-93 49,-151 106,-174 57,-22 116,-25 177,-6 6,2 12,4 19,6 6,3 12,4 18,6 16,7 32,15 48,24 16,10 30,19 44,29 9,-61 11,-105 5,-131 -6,-26 -19,-47 -36,-63 -6,-4 -11,-8 -17,-12 -5,-4 -11,-7 -17,-10 -6,-3 -12,-6 -17,-8 -6,-2 -12,-4 -18,-6 -23,-7 -49,-10 -77,-8 -28,1 -59,6 -93,15l20 -129z"/>
  <path class="fil6" d="M12033 12490c-27,14 -56,23 -86,25 -30,3 -59,1 -87,-5 -6,-1 -12,-3 -16,-4 -5,-1 -11,-2 -16,-4 -76,-25 -139,-80 -188,-166 -50,-85 -64,-192 -43,-320 21,-129 67,-217 137,-261 70,-45 144,-54 219,-29 7,3 15,6 23,8 8,4 15,7 22,10 25,13 49,29 72,49 23,20 44,43 63,69l-60 99c-3,-4 -7,-8 -11,-12 -4,-4 -8,-9 -10,-13 -20,-20 -38,-36 -57,-49 -19,-13 -38,-23 -57,-29 -54,-18 -104,-10 -148,24 -45,34 -74,90 -86,169 -13,78 -5,146 26,203 30,57 72,94 127,113 23,7 47,11 73,11 26,0 52,-4 79,-13l23 125z"/>
  <path class="fil6" d="M11557 11781c-6,-6 -12,-12 -18,-18 -6,-5 -12,-10 -18,-16 -18,-16 -37,-29 -56,-40 -19,-11 -39,-20 -60,-25 -21,-6 -42,-7 -62,-3 -20,4 -34,13 -42,25 -1,2 -2,4 -4,7 -1,2 -2,5 -2,8 -1,1 -2,2 -2,4 0,1 -1,3 -1,4 -1,3 -1,6 -1,9 0,3 0,6 1,9 2,15 8,30 19,47 11,16 27,30 46,43 65,36 116,78 155,126 39,49 54,112 45,192l-2 14c-10,72 -38,122 -84,152 -46,29 -102,36 -169,20l-13 -2c-19,-7 -38,-15 -57,-24 -20,-10 -39,-22 -58,-35 -16,-12 -33,-25 -49,-39 -15,-15 -31,-31 -46,-48l59 -119c36,37 68,69 97,93 30,24 57,40 81,48 37,9 67,5 89,-10 23,-16 36,-37 40,-64 0,-2 1,-4 1,-6 0,-3 0,-4 0,-7 1,-25 -7,-52 -23,-79 -16,-27 -41,-51 -75,-70 -67,-47 -111,-94 -134,-139 -22,-45 -30,-93 -24,-143 8,-53 34,-92 77,-115 43,-24 92,-28 145,-13 21,6 42,13 61,21 19,8 36,17 53,28 12,7 24,16 37,25 12,9 24,19 37,30l-47 109z"/>
  <path class="fil6" d="M10837 11531c-9,-2 -19,-3 -28,-2 -10,0 -19,2 -30,4 -21,5 -42,16 -62,32 -21,15 -37,37 -51,66l324 65c-8,-30 -21,-57 -37,-80 -16,-23 -35,-42 -54,-55 -9,-7 -19,-13 -29,-18 -10,-5 -20,-8 -29,-10l-2 0 -2 0zm-202 215c0,1 -1,3 -1,5 0,2 0,4 -1,6 -1,2 -2,4 -2,5 0,2 0,4 -1,6 -1,9 -1,20 -1,29 0,11 0,21 0,33 4,55 18,109 44,161 26,51 62,82 111,93l5 2c42,9 81,3 114,-17 33,-20 65,-50 97,-91l61 110c-43,55 -88,92 -135,108 -46,17 -95,21 -146,10l-12 -1c-93,-23 -160,-81 -201,-173 -40,-93 -56,-191 -45,-296 0,-6 1,-13 2,-20 1,-7 3,-14 4,-22 15,-83 50,-154 104,-215 55,-60 126,-82 213,-64 92,18 159,70 200,155 41,85 58,174 50,269l-463 -93z"/>
  <path class="fil6" d="M10093 11374c18,-19 36,-33 58,-44 21,-11 43,-18 64,-21 9,-1 20,-2 30,-2 10,0 20,0 29,1l3 0c2,0 4,0 6,1 2,1 4,1 7,1 45,9 85,35 120,78 35,43 51,99 46,168l-34 552 -99 -12 32 -535c3,-38 -7,-69 -29,-93 -21,-25 -47,-39 -79,-43 -8,-1 -17,-2 -25,-1 -9,1 -17,2 -26,5 -20,5 -40,15 -60,29 -20,15 -37,34 -53,60l-33 545 -100 -13 46 -756 100 13 -4 68z"/>
  <path class="fil6" d="M9753 11963c-35,21 -69,37 -101,45 -32,9 -61,12 -88,10 -60,-4 -107,-31 -141,-78 -34,-48 -50,-102 -47,-162l19 -538 99 8 -18 483c-2,58 9,101 33,129 24,28 52,43 85,46 7,1 14,1 21,0 7,0 14,-1 22,-3 21,-5 43,-14 64,-26 21,-13 40,-29 56,-48l21 -558 99 8 -28 757 -99 -7 1 -64z"/>
 </g>
</svg>
