<?xml version="1.0" encoding="UTF-8" standalone="no"?>
<svg
   xmlns:dc="http://purl.org/dc/elements/1.1/"
   xmlns:cc="http://creativecommons.org/ns#"
   xmlns:rdf="http://www.w3.org/1999/02/22-rdf-syntax-ns#"
   xmlns:svg="http://www.w3.org/2000/svg"
   xmlns="http://www.w3.org/2000/svg"
   xmlns:sodipodi="http://sodipodi.sourceforge.net/DTD/sodipodi-0.dtd"
   xmlns:inkscape="http://www.inkscape.org/namespaces/inkscape"
   id="Слой_1"
   data-name="Слой 1"
   viewBox="0 0 551.97 456.05"
   version="1.1"
   inkscape:version="0.91 r13725"
   sodipodi:docname="rudn_logo2.svg">
  <metadata
     id="metadata118">
    <rdf:RDF>
      <cc:Work
         rdf:about="">
        <dc:format>image/svg+xml</dc:format>
        <dc:type
           rdf:resource="http://purl.org/dc/dcmitype/StillImage" />
      </cc:Work>
    </rdf:RDF>
  </metadata>
  <defs
     id="defs116" />
  <sodipodi:namedview
     pagecolor="#ffffff"
     bordercolor="#666666"
     borderopacity="1"
     objecttolerance="10"
     gridtolerance="10"
     guidetolerance="10"
     inkscape:pageopacity="0"
     inkscape:pageshadow="2"
     inkscape:window-width="1442"
     inkscape:window-height="974"
     id="namedview114"
     showgrid="false"
     inkscape:zoom="0.51748713"
     inkscape:cx="275.98499"
     inkscape:cy="228.02499"
     inkscape:window-x="0"
     inkscape:window-y="40"
     inkscape:window-maximized="0"
     inkscape:current-layer="Layer_1" />
  <title
     id="title3">rudn_logo2</title>
  <g
     id="Layer_1">
    <path
       d="M6.63,112.66c31.55,16.07,51.67,43.82,55.13,88.67C39.51,179,20.64,150.36,6.63,112.66Z"
       transform="translate(1.15 0.56)"
       style="fill:none;stroke:#fff;stroke-miterlimit:10"
       id="path6" />
    <path
       d="M542.37,117c-31.55,16.07-52.13,44.28-55.61,89.09C509,183.72,528.36,154.69,542.37,117Z"
       transform="translate(1.15 0.56)"
       style="fill:none;stroke:#fff;stroke-miterlimit:10"
       id="path8" />
    <path
       d="M6.94,190.92a76.26,76.26,0,0,0,7.31,21c20.61,38.32,63.41,46.8,69,39.37Z"
       transform="translate(1.15 0.56)"
       style="fill:none;stroke:#fff;stroke-miterlimit:10"
       id="path10" />
    <path
       d="M542.06,195.26a77.18,77.18,0,0,1-7.28,21c-20.61,38.32-63.44,46.8-69,39.37l76.31-60.35h0Z"
       transform="translate(1.15 0.56)"
       style="fill:none;stroke:#fff;stroke-miterlimit:10"
       id="path12" />
    <path
       d="M115.45,242.08c32.37,6.92,57.26,27.16,71.2,66.81Z"
       transform="translate(1.15 0.56)"
       style="fill:none;stroke:#fff;stroke-miterlimit:10"
       id="path14" />
    <path
       d="M433.55,246.42c-32.37,6.92-57.26,27.16-71.2,66.81Z"
       transform="translate(1.15 0.56)"
       style="fill:none;stroke:#fff;stroke-miterlimit:10"
       id="path16" />
    <path
       d="M141.73,243.67c31.41,10.52,53.86,33.42,63.27,74.41Z"
       transform="translate(1.15 0.56)"
       style="fill:none;stroke:#fff;stroke-miterlimit:10"
       id="path18" />
    <path
       d="M407.3,248c-31.41,10.52-53.86,33.42-63.27,74.41Z"
       transform="translate(1.15 0.56)"
       style="fill:none;stroke:#fff;stroke-miterlimit:10"
       id="path20" />
    <path
       d="M78.55,106.65c18.2,32.63,19.59,68.8-3.71,110.12Z"
       transform="translate(1.15 0.56)"
       style="fill:none;stroke:#fff;stroke-miterlimit:10"
       id="path22" />
    <path
       d="M470.45,111c-18.2,32.63-19.56,68.8,3.71,110.15Z"
       transform="translate(1.15 0.56)"
       style="fill:none;stroke:#fff;stroke-miterlimit:10"
       id="path24" />
    <path
       d="M33.33,85c27.41,25.4,39.88,59.38,30.5,105.9Z"
       transform="translate(1.15 0.56)"
       style="fill:none;stroke:#fff;stroke-miterlimit:10"
       id="path26" />
    <path
       d="M515.67,89.39c-27.38,25.4-39.85,59.38-30.5,105.9Z"
       transform="translate(1.15 0.56)"
       style="fill:none;stroke:#fff;stroke-miterlimit:10"
       id="path28" />
    <path
       d="M33.28,268.76c36.42-8.25,71.52.68,104.6,34.72Z"
       transform="translate(1.15 0.56)"
       style="fill:none;stroke:#fff;stroke-miterlimit:10"
       id="path30" />
    <path
       d="M515.75,273.09c-36.45-8.25-71.52.68-104.6,34.72Z"
       transform="translate(1.15 0.56)"
       style="fill:none;stroke:#fff;stroke-miterlimit:10"
       id="path32" />
    <path
       d="M33.28,268.76a84.41,84.41,0,0,0,15.65,19.56c25.85,23.56,58.17,26.13,75.77,22.05l19,1.36,5.1-2.55-11.57-5.78a0.85,0.85,0,0,0,.11-0.28L33.31,268.73Z"
       transform="translate(1.15 0.56)"
       style="fill:none;stroke:#fff;stroke-miterlimit:10"
       id="path34" />
    <path
       d="M515.75,273.09a86,86,0,0,1-15.65,19.59c-23.16,26.25-62.08,31-83.36,23.24l-48.27,11,14.91-7.34,28.35-11.79a1.53,1.53,0,0,1-.09-0.28Z"
       transform="translate(1.15 0.56)"
       style="fill:none;stroke:#fff;stroke-miterlimit:10"
       id="path36" />
    <path
       d="M147,369.72c30.78-20.44,68.31-24,106.27,1.42C217.75,367,181.07,365.7,147,369.72Z"
       transform="translate(1.15 0.56)"
       style="fill:none;stroke:#fff;stroke-miterlimit:10"
       id="path38" />
    <path
       d="M145.1,369.72c6.46,5.92,15.34,9.92,22.11,13.15a85.49,85.49,0,0,0,13.21,4.93l-31.29,5.64a85.83,85.83,0,0,0,23.1,9.75,89.68,89.68,0,0,0,30.27,2.18l-16,13.78-7.62.51-7.8,6.89c-8.39,10.66-6.69,12.19-6.55,15.9,0.62,16,12.25,8.79,27.07-15.68a360.72,360.72,0,0,1,37.87-28.26A75.28,75.28,0,0,0,248.65,387q11.48-6.42,23.24-11.88a559.75,559.75,0,0,1,79,57.32l4.56-1,0.51,7.11,10.69,12.76q14.24,10.71,14.26-9.16l-14.26-17.83-5.1,1q-13.1-9.48-26.36-18.54c27.5,6.49,51.22.65,52.86-6.21l-34.24-8.31c27.24-2.3,47.2-16.19,46.83-23.33-38.55-1.28-79.37,2.81-113.84,7,2.58,2.07,9.47,1.33,12.08,3l-12.33-3c-2.44-1.42-4.85-2.81-7.28-4.2,9-3.91,18.59-7.82,27.84-11l-12.25-3.17c-7.62,3.37-15.19,6.77-22.62,10.26q-14.75-8.16-29.82-15.34l-14.77-.54q19.22,8.76,37.44,19.25l-2.83,1.36c-33.84-7.37-82.6-10-117.27-2.83Z"
       transform="translate(1.15 0.56)"
       style="fill:none;stroke:#fff;stroke-miterlimit:10"
       id="path40" />
    <path
       d="M149.13,393.45c28.09-24.63,63.18-33.53,108.48-19.42Z"
       transform="translate(1.15 0.56)"
       style="fill:none;stroke:#fff;stroke-miterlimit:10"
       id="path42" />
    <path
       d="M287.11,375.82c31.21-20.52,71.23-27,114.18-6.77C361,368.93,317.87,371.85,287.11,375.82Z"
       transform="translate(1.15 0.56)"
       style="fill:none;stroke:#fff;stroke-miterlimit:10"
       id="path44" />
    <path
       d="M267.84,99.19V58.35a78.91,78.91,0,0,0-61,35.77,422.22,422.22,0,0,0,61,5.1v0Zm0,29.22V109.2a393.08,393.08,0,0,1-65.65-6.86,78.8,78.8,0,0,0-7.6,26.08h73.25Zm0,37.5V138.54h-73.7a78,78,0,0,0,8.56,34.13A394.57,394.57,0,0,1,267.84,165.92Zm0,49.72V175.87a422.87,422.87,0,0,0-60.32,5,78.92,78.92,0,0,0,60.32,34.75v0Zm7.74-39.83v40a79,79,0,0,0,63.66-36.23,491.58,491.58,0,0,0-62.47-3.71h-1.19v0Zm0-37.3v27.3h3a413.3,413.3,0,0,1,65.56,5,77.8,77.8,0,0,0,7.62-32.31H275.58Zm0-29.22v19.13h75.71a78.26,78.26,0,0,0-6.72-24.24,411.84,411.84,0,0,1-66,5.13h-3Zm0-51.05v41h1.19a494.88,494.88,0,0,0,63.13-3.8A78.89,78.89,0,0,0,275.58,58.23ZM195.67,92a89.92,89.92,0,0,1,49.78-40.14c-34.81,3.51-65.65,13.58-88.33,27.81C167.07,84.65,180.14,88.82,195.67,92Zm-11.76,36.37A88.29,88.29,0,0,1,191.5,100C174.72,96.08,160.3,91,149,85.19c-16.61,12.3-27.58,27.1-30.7,43.23h65.59v0ZM192,174.93a88.76,88.76,0,0,1-8.48-36.42H117.38c0.23,19.36,11.76,37.25,31,51.7,11.45-6,26.28-11.22,43.57-15.25Zm64,49.86a90,90,0,0,1-59.75-41.89c-16.13,3.29-29.65,7.62-39.8,12.78,25,15.9,60.09,26.67,99.55,29.08v0Zm94.67-43.65a89.76,89.76,0,0,1-60.72,43.62c42.09-2.61,79.2-14.71,104.4-32.4C382.7,187.72,367.84,183.92,350.66,181.14Zm11.71-42.66a88.53,88.53,0,0,1-7.48,34.24c18.17,3.57,34.07,8.36,46.8,14.06,16.67-13.83,26.47-30.44,26.7-48.3h-66Zm-7-36.28A89,89,0,0,1,362,128.36h65.48c-2.86-14.68-12.22-28.26-26.39-39.88-12.5,5.53-28,10.2-45.72,13.69v0ZM300.49,51.86A89.83,89.83,0,0,1,351.2,93.78c16.61-2.72,31-6.38,42.38-10.88-23-15.93-55.78-27.27-93.12-31h0Zm-27.61-9.1c90.88,0,165,42.72,165,95.13S363.73,233,272.88,233s-165-42.75-165-95.13S182,42.76,272.88,42.76Z"
       transform="translate(1.15 0.56)"
       style="fill:#fff"
       id="path46" />
    <path
       d="M356.48,56.82V34.65c0-6.6-1.64-11-4.93-13.24s-8.36-3.34-15.22-3.34H317.73V-0.5H422.07V18.07H403.5c-6.6,0-11.59,1.11-15.05,3.34s-5.13,6.66-5.13,13.24V67.87l-26.87-11ZM271.1-.53V18H252.5q-9.86,0-15,3.34t-5.13,13.24V175.73q0,34.74,12,56.72t48,22.73q34.36-.81,49.21-24.92c1.47-2.38,2.83-4.85,4.08-7.34l31.89-11.48,1.25-1a111.62,111.62,0,0,1-21.4,39.2q-21.51,26.11-75.68,26.08l-4,.4c-4.48-.28-9-0.54-13.44-0.79s-9.1-.65-13.86-1.19a118.49,118.49,0,0,1-57.12-24.52q-25.89-20.15-25.88-73.9V34.59c0-6.6-1.64-11-5-13.24S154.17,18,147.31,18H128.75V-0.56H271Z"
       transform="translate(1.15 0.56)"
       style="fill:#fff"
       id="path48" />
    <path
       d="M78.55,106.65A85.9,85.9,0,0,0,64.17,127.2a90.46,90.46,0,0,0-8.9,33.67L33.36,85.25a85.81,85.81,0,0,0-7.31,24c-5.7,41.33,18.37,73.36,31.86,80.16a75,75,0,0,0,3.86,11.28C39.2,180.09,21.49,149.79,7.09,112.86a100.14,100.14,0,0,0-.45,23.73c3.74,46.69,45.61,69.84,55.27,64.46a47.7,47.7,0,0,0,5.61,9.81A186,186,0,0,0,99.35,261.9c-5.61-2.47-8.62-4.85-13.66-6.21l-0.34.14a6.54,6.54,0,0,0,.4-0.54l0.45,0.23C62.7,220.77,33.59,207.53.57,209a76.3,76.3,0,0,0,10.57,19.47c21.37,27.81,54.14,33.45,68.2,30.27A252.37,252.37,0,0,1,107.71,271a253.17,253.17,0,0,0,46.94,37.16l7.17-2.38a52.09,52.09,0,0,0,15.68,4.45c12.3,8.05,23.81,10.4,27.21,7.43l-63-73.93a76.19,76.19,0,0,0,2.83,22c0.54,1.79,1.11,3.51,1.76,5.24l-30.84-28.86a75.69,75.69,0,0,0,5.3,21.57,79.17,79.17,0,0,0,17.74,26.11A217.06,217.06,0,0,1,115,269.47c-6.41-13.15-10.18-26.45-5.3-36.17a7.57,7.57,0,0,0,4.45,1.42,7.84,7.84,0,1,0-7.85-7.85,7.64,7.64,0,0,0,1,3.83c-4.65,7.17-2.86,20.72,2.38,33.25-1.13-1.22-2.24-2.41-3.32-3.66-5.39-12.36-9-24.24-7.23-34.58a5,5,0,0,0,.65,0,7.84,7.84,0,1,0-3.2-.68,68.73,68.73,0,0,0,4.25,28.8,254.63,254.63,0,0,1-25.37-37.27L75,216.2l3.54-109.5Z"
       transform="translate(1.15 0.56)"
       style="fill:none;stroke:#fff;stroke-miterlimit:10"
       id="path50" />
    <path
       d="M470.45,111a85.9,85.9,0,0,1,14.37,20.55,90.06,90.06,0,0,1,8.9,33.67l21.91-75.63a85.81,85.81,0,0,1,7.31,24c5.7,41.33-18.4,73.36-31.89,80.16a81.57,81.57,0,0,1-4.22,11.79c22.56-20.58,40.65-51.39,55-88.33a98.66,98.66,0,0,1,.45,23.73c-3.57,46.35-45.52,70.72-56.92,68.74-1.76,4-2,3-4,5.5a186,186,0,0,1-31.83,51.05c5.61-2.47,8.62-4.85,13.66-6.21l0.34,0.14a4.05,4.05,0,0,1-.4-0.57l-0.43.26c23.5-34.75,52.64-48,85.63-46.52a77,77,0,0,1-10.57,19.5c-21.37,27.78-54.54,37-68.62,33.84-8.67,2.95-20.95,8.05-30.39,11.39-13.61,13.89-27,23.39-44.56,34.36-10.52,10.15-39.29,24.49-50.06,9.5l63-73.93a76.19,76.19,0,0,1-2.83,22c-0.54,1.79-1.11,3.51-1.73,5.24l30.84-28.86a76.65,76.65,0,0,1-5.3,21.57A79.47,79.47,0,0,1,410.47,294a214.38,214.38,0,0,0,23.47-20.35c6.43-13.15,10.18-26.42,5.3-36.14a7.75,7.75,0,0,1-4.45,1.39,7.85,7.85,0,1,1,7.85-7.85,7.64,7.64,0,0,1-1,3.83c4.62,7.17,2.86,20.72-2.41,33.25q1.7-1.79,3.32-3.66c5.39-12.36,9-24.24,7.23-34.55l-0.65,0a7.93,7.93,0,1,1,3.2-.71,69.19,69.19,0,0,1-4.25,28.8,254.63,254.63,0,0,0,25.37-37.27l0.51-.34L470.4,110.93Z"
       transform="translate(1.15 0.56)"
       style="fill:none;stroke:#fff;stroke-miterlimit:10"
       id="path52" />
    <path
       d="M0,208.89c11.45-.62,21.68-0.48,31.1,1.28L7,190.92c31.69,3.71,56.95,21.46,74.49,56.95,1.53,2.38,3,4.88,4.56,7.54L0,208.92Z"
       transform="translate(1.15 0.56)"
       style="fill:none;stroke:#fff;stroke-miterlimit:10"
       id="path54" />
    <path
       d="M549,213.23c-11.45-.62-21.68-0.48-31.1,1.28l24.12-19.25c-31.69,3.71-56.95,21.46-74.49,56.92-1.53,2.38-3.06,4.88-4.56,7.54Z"
       transform="translate(1.15 0.56)"
       style="fill:none;stroke:#fff;stroke-miterlimit:10"
       id="path56" />
    <path
       d="M142.61,405.44c7.11,5,13.41,7.57,18.74,7.57a12.32,12.32,0,0,0,10.23-4.93,18.58,18.58,0,0,0,3.37-11.17c0-8.33-4.59-16.81-13.35-16.81-3.91,0-8.31,1.64-13,4.9l14.94,9.64,0.06,0.48c0.37,3.63-.23,6.38-1.81,8.11s-4.31,2.58-7.94,2.15l-0.45-.17-15.93-10.43a20,20,0,0,0,3.88,8.67q0.68,1,1.28,2ZM161.34,415c-5.78,0-12.56-2.69-20.07-8.05l-0.28-.31c-0.4-.68-0.85-1.33-1.33-2-1.9-2.83-4.28-6.35-4.39-11.76l0-1.9,19,12.47c2.81,0.26,4.82-.23,6-1.53s1.56-3.29,1.36-6.09L145,385.12l1.19-.85c5.56-4.08,10.74-6.12,15.42-6.12,10.06,0,15.34,9.47,15.34,18.82a20.59,20.59,0,0,1-3.8,12.36A14.27,14.27,0,0,1,161.34,415v0Z"
       transform="translate(1.15 0.56)"
       style="fill:#fff"
       id="path58" />
    <path
       d="M142.58,395.72l9,6.29c3.49,2.66,6.8,2.95,8.65.77,1.3-1.53,1.81-4.08,1.42-7.06l-14.46-9.21a14.45,14.45,0,0,0-4.68,9.18ZM157,406.29a11.07,11.07,0,0,1-6.58-2.64l-9.95-6.92,0-.57a16.27,16.27,0,0,1,6-11.65l0.57-.51,16.5,10.52,0.06,0.45c0.62,3.8,0,7-1.81,9.13A6.11,6.11,0,0,1,157,406.29Z"
       transform="translate(1.15 0.56)"
       style="fill:#fff"
       id="path60" />
    <path
       d="M137.87,392.88l8.93,6a13.89,13.89,0,0,1-.37-10.32,15,15,0,0,1,13.8-10.32l-13.58-6.63C141.79,376.19,138.53,384.07,137.87,392.88ZM153,405.36a16.5,16.5,0,0,1-2-1.33L135.8,393.93l0-.6c0.6-9.84,4.34-18.71,10-23.7l0.51-.45,0.6,0.31,21.88,10.69L167.92,382a16.91,16.91,0,0,0-7.23-1.76,13,13,0,0,0-12.39,9,11.64,11.64,0,0,0,3.77,13.21l1.9,1.28-1,1.7Z"
       transform="translate(1.15 0.56)"
       style="fill:#fff"
       id="path62" />
    <path
       d="M373.77,328.85a97.29,97.29,0,0,1,25.06.62,8.12,8.12,0,1,1-2.47,5.84,8.79,8.79,0,0,1,.37-2.47c-4.88-.51-11.08-0.54-15.93-1.08Z"
       transform="translate(1.15 0.56)"
       style="fill:none;stroke:#fff;stroke-miterlimit:10"
       id="path64" />
    <path
       d="M95.72,373.75c4.25,2.83,8.87,5.73,13.78,8.79,9.13,5.7,19.3,12,29.11,19.42-1.53-4.05-1.7-7.17-1.45-11.82,1.33-24.94,32.46-38.69,87.64-38.69,38,0,85.24,6.72,120.41,17.15l9.24,2.81c24.15,7.37,41.58,12.67,58.48,12.67,20.61,0,41.27-8.11,73-28.77-9.84-.51-24,1.73-41.87,6.49-5.07,2-9.52,3.26-12.1,3.4l-0.34-2c4.14-1.25,8.14-2.38,11.93-3.37,21.37-8.48,50.8-28.18,43.82-47.48-1.7-4.68-6.24-6.66-13.44-5.75l-1.76,1c-2.1,1.25-7,4.14-9.16,5.53l0.17,0.11-1.42.82c-6.24,3.71-9.07,7.91-8,11.88a8.24,8.24,0,0,0,7.77,5.61,5.77,5.77,0,0,0,5-2.72,6.16,6.16,0,0,0,0-5.64c-1.11-1.84-3.63-2.83-7.28-2.89l-0.54-1.84,7.14-4.82,0.51,0.26a13.15,13.15,0,0,1,6.75,7.34,11.18,11.18,0,0,1-.43,8.76c-1.33,2.75-3.94,5.44-7.74,8a86.57,86.57,0,0,1-32.94,6.52c-13.35,0-27.72-2.95-43.91-9C377.54,331.17,356,323.24,332,315.36c-28.8-9.44-68.71-15.08-106.72-15.08-60.38,0-105.11,13.07-122.68,35.83-8.19,10.6-10.46,23.27-6.8,37.67Zm49.41,35.77c-1.19-.23-3.09-2-4.14-3.17-10.8-8.53-22.36-15.73-32.57-22.11-5-3.15-9.78-6.09-14.14-9L94,375l-0.09-.37c-4-15.19-1.59-28.57,7.06-39.77,18-23.27,63.27-36.62,124.27-36.62,38.21,0,78.35,5.67,107.35,15.19,24.07,7.88,45.66,15.85,56.38,20.24,16,6,30.07,8.87,43.17,8.87a84.76,84.76,0,0,0,32-6.26c3.32-2.24,5.7-4.68,6.86-7.11a9.07,9.07,0,0,0,.34-7.2,11.12,11.12,0,0,0-5.22-6l-3.86,2.61c3.51,0.62,5.24,2.21,6.09,3.6a8.16,8.16,0,0,1,0,7.68,7.75,7.75,0,0,1-6.77,3.71,10.17,10.17,0,0,1-9.69-7.09c-0.77-2.83-.65-8.39,8.73-14,0.71-.71,3-2.13,10.57-6.58l1.93-1.13,0.4-.14a27.28,27.28,0,0,1,3.63-.26c7.88,0,11,4,12.16,7.31,6.35,17.63-14.88,35.26-35.06,45.49,14.94-3.4,26.42-4.59,34.84-3.68l0.45,1.84c-33.56,22.11-55,30.73-76.62,30.73-17.18,0-34.75-5.36-59-12.76l-9.24-2.81c-35-10.37-82-17.06-119.85-17.06-31.24,0-83.9,4.79-85.63,36.79-0.28,5.24,0,8.25,2.21,13.15a7,7,0,0,0,1,1.47c1.19,0.94,2.38,1.9,3.54,2.89l-0.82,1.76Z"
       transform="translate(1.15 0.56)"
       style="fill:#fff"
       id="path66" />
    <path
       d="M479.41,353.71a36.19,36.19,0,0,1,9,1c15.16,3.86,24.63,11.45,27.5,22.08l24.21-18.51c-9.64-11.17-23.1-17.83-36.2-17.83A40.65,40.65,0,0,0,489.81,343c-17,6.26-28.71,10.86-42.43,16.27,12.36-3.15,23.16-5.56,32.06-5.56h0Zm35.15,26.59-0.31-1.56c-2.18-10.63-11.31-18.25-26.39-22.08a34.85,34.85,0,0,0-8.45-.94c-10.46,0-23.87,3.49-39.37,7.51l-7.85,2-0.62-1.9,6.49-2.58c17.77-7,30.61-12.13,51-19.67a42.47,42.47,0,0,1,14.74-2.66c14,0,28.37,7.23,38.44,19.33l0.68,0.82-28.37,21.68v0Z"
       transform="translate(1.15 0.56)"
       style="fill:#fff"
       id="path68" />
    <path
       d="M456,318.93l-1.59-1.25c3-3.86,7.26-4.17,11.37-3.88l-0.11,2c-5-.34-7.68.57-9.67,3.12v0ZM432.67,365.3l-0.74-1.87c31-12,42.63-23.27,40-39.06l2-.34c2.83,16.92-9.13,28.88-41.27,41.27h0Z"
       transform="translate(1.15 0.56)"
       style="fill:#fff"
       id="path70" />
    <path
       d="M462.32,318.56a8.41,8.41,0,0,1,6.66,5.1,6.79,6.79,0,0,1,.26,3.83l2.75-2c-0.31-4.93-2.15-7.91-6-9.55l-3.68,2.64Zm2.52,14.71-1.16-1.64,1.11-.82c2.21-1.87,3.06-4.28,2.3-6.43-0.91-2.47-3.66-4-7.17-4h-0.4l-0.6-1.81,6.83-4.88,0.51,0.2c5,1.93,7.51,5.87,7.77,12l0,0.54-8,6a12.93,12.93,0,0,1-1.19.88h0Z"
       transform="translate(1.15 0.56)"
       style="fill:#fff"
       id="path72" />
    <path
       d="M286.77,376.16c52.47-2.75,79.25,0,101.9,24.69C354.32,392.54,318.86,384.46,286.77,376.16Z"
       transform="translate(1.15 0.56)"
       style="fill:none;stroke:#fff;stroke-miterlimit:10"
       id="path74" />
    <path
       d="M238.84,332.9a3.1,3.1,0,0,0,1.25,2.75,4.8,4.8,0,0,0,2.81.82h0.31a1.46,1.46,0,0,0,.31-0.06,6.32,6.32,0,0,0,1.79-.43,6.24,6.24,0,0,0,1.5-.79v-5.47a1.45,1.45,0,0,0-.28-0.11,4,4,0,0,1-.37-0.17,10.38,10.38,0,0,0-1.33-.31,8,8,0,0,0-1.67-.14h-0.34a5.36,5.36,0,0,0-2.69.91,3.3,3.3,0,0,0-1.25,3Zm-0.48-14.29a4.47,4.47,0,0,1,1-.45,7.18,7.18,0,0,1,1-.34,12.4,12.4,0,0,1,1.42-.26,11.93,11.93,0,0,1,1.42-.11,9.58,9.58,0,0,1,2,.23,4.4,4.4,0,0,1,1.7.71,5.27,5.27,0,0,1,2,2.52,11.74,11.74,0,0,1,.65,4.08v14.51h-2.66v-1a6,6,0,0,1-2,1,8.5,8.5,0,0,1-2.69.43h-0.6a7,7,0,0,1-4-1.73c-1.22-1-1.81-2.78-1.81-5.3q0-4,2.21-5.7a8,8,0,0,1,4.88-1.67l0.54,0a3.61,3.61,0,0,0,.54,0,9,9,0,0,1,1.42.28,8.17,8.17,0,0,1,1.33.43,10.71,10.71,0,0,0-.43-3.66A2.69,2.69,0,0,0,245,321.2l-0.51-.17a4.73,4.73,0,0,0-.51-0.14l-0.51-.09c-0.2,0-.37,0-0.54,0a7.13,7.13,0,0,0-2.18.4,14.3,14.3,0,0,0-2.49,1.22v-3.77h0.09Z"
       transform="translate(1.15 0.56)"
       style="fill:#fff"
       id="path76" />
    <polygon
       points="232.36 316.25 235.2 316.25 235.2 312.65 232.36 312.65 232.36 316.25"
       style="fill:#fff"
       id="polygon78" />
    <polygon
       points="232.39 340.09 235.2 340.09 235.2 318.58 232.39 318.58 232.39 340.09"
       style="fill:#fff"
       id="polygon80" />
    <path
       d="M220.39,321.31l-2.07.06L218.26,318l2.1-.06,0-3.15,2.81-1.25,0.06,4.31,5.56-.11,0,3.34-5.53.14,0.14,12.67a1.85,1.85,0,0,0,.65,1.53,2.21,2.21,0,0,0,1.53.48,3.46,3.46,0,0,0,.74-0.09,3.36,3.36,0,0,0,.79-0.28,4.9,4.9,0,0,0,.85-0.45,4.69,4.69,0,0,0,.85-0.62l1.39,2.89a13,13,0,0,1-1.62,1.16,7.54,7.54,0,0,1-1.79.77c-0.34.09-.68,0.17-1,0.23a5.86,5.86,0,0,1-1,.09,4.18,4.18,0,0,1-2.83-.94,4.54,4.54,0,0,1-1.39-3.4l-0.2-13.95Z"
       transform="translate(1.15 0.56)"
       style="fill:#fff"
       id="path82" />
    <path
       d="M206.27,320.72a7,7,0,0,1,1.53-1.5,7.42,7.42,0,0,1,1.76-.91c0.28-.09.54-0.14,0.82-0.2s0.57-.09.82-0.11h0.43a5.4,5.4,0,0,1,3.6,1.59,6.11,6.11,0,0,1,1.7,4.51l0.4,15.7-2.81.14-0.37-15.22a3.27,3.27,0,0,0-1-2.49,3.14,3.14,0,0,0-2.32-.82c-0.23,0-.45.06-0.71,0.11a3.55,3.55,0,0,0-.71.26,5.36,5.36,0,0,0-1.64,1.13,6.41,6.41,0,0,0-1.33,2l0.37,15.48-2.83.14L203.41,319l2.86-.14,0,2Z"
       transform="translate(1.15 0.56)"
       style="fill:#fff"
       id="path84" />
    <path
       d="M193.23,322.73a4,4,0,0,0-.79.17,3.32,3.32,0,0,0-.79.37,6.18,6.18,0,0,0-1.62,1.42A6.31,6.31,0,0,0,188.9,327l9.24-.94a5.39,5.39,0,0,0-3.06-3,2.44,2.44,0,0,0-.85-0.26,2.75,2.75,0,0,0-.82,0h-0.17Zm-4.73,7.68v0.34a0.36,0.36,0,0,0,0,.17v0.17l0.09,0.85c0.06,0.28.09,0.6,0.14,0.88a10.73,10.73,0,0,0,1.87,4.08,3.82,3.82,0,0,0,3.46,1.64l0.14,0a5,5,0,0,0,3.09-1.42,11.93,11.93,0,0,0,2.3-3.34l2.13,2.52a10.88,10.88,0,0,1-3.29,4.11,8.35,8.35,0,0,1-4,1.53l-0.31.09a6.71,6.71,0,0,1-6.26-3.12,14.87,14.87,0,0,1-2.47-7.82,4,4,0,0,1,0-.6,4.8,4.8,0,0,1,0-.62,14.17,14.17,0,0,1,2-6.86,7,7,0,0,1,5.64-3.57,6.4,6.4,0,0,1,6.18,2.61,13.17,13.17,0,0,1,2.52,7l-13.24,1.33Z"
       transform="translate(1.15 0.56)"
       style="fill:#fff"
       id="path86" />
    <polygon
       points="183.49 315.91 183.75 319.51 180.97 319.91 180.69 316.31 183.49 315.91"
       style="fill:#fff"
       id="polygon88" />
    <polygon
       points="182.7 343.63 181.11 322.23 183.92 321.81 185.51 343.18 182.7 343.63"
       style="fill:#fff"
       id="polygon90" />
    <path
       d="M179.37,341a9.48,9.48,0,0,1-4.11,3.57,2.66,2.66,0,0,0-.43.17,1.48,1.48,0,0,1-.45.17,7,7,0,0,1-6.26-.91q-3.1-2-4.25-7.4c-0.77-3.66-.48-6.69.82-9a9.07,9.07,0,0,1,5.16-4.59,4.38,4.38,0,0,1,.65-0.2c0.2-.06.43-0.09,0.65-0.14a8.66,8.66,0,0,1,2.27,0,9.76,9.76,0,0,1,2.27.65l-0.48,3.6a1.64,1.64,0,0,0-.4-0.14,1.64,1.64,0,0,1-.4-0.14,7.41,7.41,0,0,0-1.87-.26,6.26,6.26,0,0,0-1.67.26,5.65,5.65,0,0,0-3.43,3.23,9,9,0,0,0-.48,5.81,7.42,7.42,0,0,0,2.64,4.73,4.58,4.58,0,0,0,4.25.62,7.18,7.18,0,0,0,1.9-1,9.49,9.49,0,0,0,1.84-1.73l1.81,2.78Z"
       transform="translate(1.15 0.56)"
       style="fill:#fff"
       id="path92" />
    <path
       d="M156.61,325.17a15,15,0,0,0-3.17.37,12.23,12.23,0,0,0-2.44.85,5.41,5.41,0,0,0-2.47,2.18,3.2,3.2,0,0,0-.34,2.32c0,0.11.09,0.23,0.11,0.31a2.49,2.49,0,0,1,.17.28,2.76,2.76,0,0,0,1.39,1,4.52,4.52,0,0,0,2.32.06,10.45,10.45,0,0,1,5.7.37c1.81,0.62,3.17,2.15,4.14,4.56a1.81,1.81,0,0,1,.06.2,1.67,1.67,0,0,0,.11.23c0,0.09,0,.17.06,0.23a1.81,1.81,0,0,0,.06.2,10.64,10.64,0,0,1-.28,6.94,9.29,9.29,0,0,1-4.82,5.24,12.44,12.44,0,0,1-3.29,1.08,13.43,13.43,0,0,1-4,.11l-1.45-4.59c0.23,0.06.51,0.09,0.77,0.14a7.64,7.64,0,0,0,.79.11l1.11,0.09a6,6,0,0,0,1,0,15.6,15.6,0,0,0,2.13-.26,8,8,0,0,0,1.76-.6,5.47,5.47,0,0,0,2.83-3,6.28,6.28,0,0,0,.11-4.08,0.73,0.73,0,0,0-.06-0.14,0.64,0.64,0,0,0,0-.11,3.91,3.91,0,0,0-1.79-2,5.93,5.93,0,0,0-3.49-.48,15.06,15.06,0,0,1-5.47-.51c-1.53-.48-2.58-1.76-3.23-3.83,0,0,0-.06,0-0.09v-0.06l0-.06a0.13,0.13,0,0,0,0-.14,6.8,6.8,0,0,1,.68-5.84,10.48,10.48,0,0,1,4.08-3.63c0.14-.09.28-0.11,0.43-0.2a3.46,3.46,0,0,1,.48-0.2,11.65,11.65,0,0,1,2.47-.74,14.6,14.6,0,0,1,2.35-.23l1.28,3.8Z"
       transform="translate(1.15 0.56)"
       style="fill:#fff"
       id="path94" />
    <path
       d="M411.61,355.1c-0.2-.14-0.37-0.28-0.54-0.43a3.89,3.89,0,0,0-.57-0.37,8.55,8.55,0,0,0-1.64-.91,7.28,7.28,0,0,0-1.76-.45,3.6,3.6,0,0,0-1.73.2,2,2,0,0,0-1.13.88c0,0.09-.06.11-0.09,0.2a0.68,0.68,0,0,0-.06.26,0.15,0.15,0,0,0-.06.11V355c0,0.09,0,.17,0,0.28a3.22,3.22,0,0,0,.62,1.25,3.59,3.59,0,0,0,1.42,1,12.79,12.79,0,0,1,4.62,2.92,6.68,6.68,0,0,1,1.64,5.24l0,0.43a6.32,6.32,0,0,1-2,4.62,6,6,0,0,1-4.73,1.28H405.2a14.93,14.93,0,0,1-3.37-1.16,13.49,13.49,0,0,1-1.45-.91,13.12,13.12,0,0,1-1.39-1.16l1.42-3.6a26.52,26.52,0,0,0,2.95,2.21,6.6,6.6,0,0,0,2.38,1,3,3,0,0,0,2.49-.68,2.72,2.72,0,0,0,1-2,0.31,0.31,0,0,1,0-.17,0.55,0.55,0,0,0,0-.2,3.67,3.67,0,0,0-.79-2.13,4.93,4.93,0,0,0-2.24-1.67,10.54,10.54,0,0,1-4.08-3.34,6.5,6.5,0,0,1-1-3.94,4.64,4.64,0,0,1,1.93-3.57,5.49,5.49,0,0,1,4.08-1,16.08,16.08,0,0,1,1.76.34,10.47,10.47,0,0,1,1.59.54c0.34,0.17.74,0.37,1.08,0.57s0.74,0.43,1.11.68l-1.11,3.26Z"
       transform="translate(1.15 0.56)"
       style="fill:#fff"
       id="path96" />
    <path
       d="M394.63,368.14a10.79,10.79,0,0,1-2.92,1,7.4,7.4,0,0,1-2.49,0,5.34,5.34,0,0,1-3.86-2.61,7.62,7.62,0,0,1-1.13-4.71l1.3-15.14,2.81,0.51-1.16,13.61a5.46,5.46,0,0,0,.71,3.74,3.83,3.83,0,0,0,2.35,1.53,4.23,4.23,0,0,0,.6.06,2.3,2.3,0,0,0,.62,0,5.88,5.88,0,0,0,3.49-1.79l1.39-15.73,2.78,0.48-1.81,21.37-2.81-.51,0.11-1.81h0Z"
       transform="translate(1.15 0.56)"
       style="fill:#fff"
       id="path98" />
    <path
       d="M371,365l-2.78-.62,1.59-14.51a4.35,4.35,0,0,0-.71-3.06,3.78,3.78,0,0,0-2.3-1.62l-0.54-.09a1.16,1.16,0,0,0-.54,0,4,4,0,0,0-1.56.62,5,5,0,0,0-1.47,1.5L361,362.7l-2.78-.62,2.35-21.23,2.78,0.62-0.23,1.93,0.43-.34,0.43-.31a5.71,5.71,0,0,1,2.1-.94,5.5,5.5,0,0,1,2,0,5.34,5.34,0,0,1,2.47,1.39,6.22,6.22,0,0,1,1.56,2.64,6.3,6.3,0,0,1,2-1.28,5.89,5.89,0,0,1,2-.45,5.8,5.8,0,0,1,1,0c0.34,0,.62.09,1,0.14a5.49,5.49,0,0,1,3.46,2.66,7.61,7.61,0,0,1,1.08,4.79L381,367.23l-2.78-.62L379.83,352a4.07,4.07,0,0,0-.74-2.92,3.69,3.69,0,0,0-2.24-1.56l-0.43-.09a1.26,1.26,0,0,0-.45,0,3.26,3.26,0,0,0-1.67.51,5.06,5.06,0,0,0-1.59,1.53L371,365Z"
       transform="translate(1.15 0.56)"
       style="fill:#fff"
       id="path100" />
    <path
       d="M346.3,351.22a3.54,3.54,0,0,0,.79,3.06,5.57,5.57,0,0,0,2.64,1.64,1.45,1.45,0,0,1,.28.11,1.27,1.27,0,0,0,.34,0,6.59,6.59,0,0,0,1.81.11,6,6,0,0,0,1.56-.34l0.79-5.36a2.75,2.75,0,0,0-.26-0.2,3.54,3.54,0,0,0-.34-0.26c-0.34-.23-0.77-0.48-1.25-0.74a10,10,0,0,0-1.62-.62l-0.17-.06-0.17-.06a5,5,0,0,0-2.75.09c-0.88.28-1.45,1.13-1.64,2.55Zm1.59-14.12a6.73,6.73,0,0,1,1-.17,6.48,6.48,0,0,1,1,0c0.48,0,1,.09,1.45.14a11,11,0,0,1,1.39.34,10.1,10.1,0,0,1,2,.82,6.67,6.67,0,0,1,1.56,1.19,6.53,6.53,0,0,1,1.56,3.09,12.14,12.14,0,0,1,.06,4.2l-2.1,14.17-2.61-.79,0.14-1a5.27,5.27,0,0,1-2.1.43,8.55,8.55,0,0,1-2.72-.4l-0.28-.11L348,358.9a8.61,8.61,0,0,1-3.66-2.89c-1-1.36-1.36-3.29-1-5.73,0.4-2.64,1.39-4.28,3-4.93a7.43,7.43,0,0,1,5-.17l0.54,0.17a3.59,3.59,0,0,0,.51.17q0.68,0.3,1.36.68c0.45,0.28.85,0.54,1.25,0.82a11.48,11.48,0,0,0,.14-3.71,3.5,3.5,0,0,0-1-1.79l-0.48-.34a2.69,2.69,0,0,0-.48-0.28c-0.17-.09-0.34-0.17-0.48-0.23l-0.51-.17a6,6,0,0,0-2.18-.23,12.07,12.07,0,0,0-2.64.43L348,337Z"
       transform="translate(1.15 0.56)"
       style="fill:#fff"
       id="path102" />
    <path
       d="M341.08,354a6.2,6.2,0,0,1-2.44.71,7.93,7.93,0,0,1-2.47-.14c-0.17,0-.34-0.09-0.45-0.11a2.65,2.65,0,0,1-.45-0.11,9.65,9.65,0,0,1-5.33-4.71c-1.42-2.41-1.81-5.44-1.22-9.07s1.9-6.15,3.88-7.4a7,7,0,0,1,6.21-.82,4.41,4.41,0,0,0,.65.23c0.23,0.11.43,0.2,0.62,0.28a10.4,10.4,0,0,1,2,1.39,11.82,11.82,0,0,1,1.79,2l-1.7,2.81a3.4,3.4,0,0,0-.31-0.34,1.61,1.61,0,0,1-.28-0.37A11.46,11.46,0,0,0,340,337a6.22,6.22,0,0,0-1.62-.82,4.29,4.29,0,0,0-4.2.68,7,7,0,0,0-2.44,4.79,8.77,8.77,0,0,0,.74,5.75,6.3,6.3,0,0,0,3.6,3.2,7,7,0,0,0,4.31-.06l0.65,3.54h0Z"
       transform="translate(1.15 0.56)"
       style="fill:#fff"
       id="path104" />
    <path
       d="M327.59,334l-0.51-.51c-0.17-.14-0.34-0.28-0.51-0.45a9.64,9.64,0,0,0-1.59-1.13,6.36,6.36,0,0,0-1.7-.71,3.71,3.71,0,0,0-1.76-.09,1.79,1.79,0,0,0-1.19.71,1.63,1.63,0,0,1-.11.2,0.53,0.53,0,0,0-.06.23,0.15,0.15,0,0,0-.06.11s0,0.09,0,.11a1.16,1.16,0,0,0,0,.51,3.22,3.22,0,0,0,.54,1.33,4.93,4.93,0,0,0,1.3,1.22,14.77,14.77,0,0,1,4.39,3.57,7.08,7.08,0,0,1,1.28,5.44l-0.06.4a5.74,5.74,0,0,1-2.38,4.31,6,6,0,0,1-4.79.57l-0.37-.06q-0.81-.3-1.62-0.68a14.07,14.07,0,0,1-1.64-1c-0.45-.34-0.94-0.71-1.39-1.11s-0.88-.88-1.3-1.36l1.67-3.37a37.38,37.38,0,0,0,2.75,2.64,7.79,7.79,0,0,0,2.3,1.36,3.08,3.08,0,0,0,2.52-.28,2.57,2.57,0,0,0,1.13-1.81c0-.06,0-0.11,0-0.17v-0.2a4.13,4.13,0,0,0-.65-2.24,5.56,5.56,0,0,0-2.13-2,11.61,11.61,0,0,1-3.8-3.94,7.14,7.14,0,0,1-.68-4.05,4.19,4.19,0,0,1,2.18-3.26,5.25,5.25,0,0,1,4.11-.37,15.48,15.48,0,0,1,1.73.6,9.48,9.48,0,0,1,1.5.79c0.34,0.2.68,0.45,1,.71s0.68,0.54,1,.85l-1.33,3.09Z"
       transform="translate(1.15 0.56)"
       style="fill:#fff"
       id="path106" />
    <path
       d="M307.18,326.87a2.5,2.5,0,0,0-.79-0.06,4.68,4.68,0,0,0-.85.11,4.54,4.54,0,0,0-1.76.91,4.72,4.72,0,0,0-1.45,1.87l9.18,1.84a7.25,7.25,0,0,0-1-2.27,6.17,6.17,0,0,0-1.53-1.56,5,5,0,0,0-.82-0.51,3.55,3.55,0,0,0-.82-0.28h-0.11v-0.06ZM301.46,333a1.23,1.23,0,0,0,0,.14,0.36,0.36,0,0,1,0,.17,0.48,0.48,0,0,0-.06.14,0.36,0.36,0,0,1,0,.17,8,8,0,0,0,0,.82v0.94a12.07,12.07,0,0,0,1.25,4.56,4.6,4.6,0,0,0,3.15,2.64l0.14,0.06a4.34,4.34,0,0,0,3.23-.48,10.47,10.47,0,0,0,2.75-2.58l1.73,3.12a8.68,8.68,0,0,1-3.83,3.06,7.3,7.3,0,0,1-4.14.28l-0.34,0a8.16,8.16,0,0,1-5.7-4.9,16.49,16.49,0,0,1-1.28-8.39,4.26,4.26,0,0,1,.06-0.57c0-.2.09-0.4,0.11-0.62a12.3,12.3,0,0,1,2.95-6.09,6,6,0,0,1,6-1.81,7.63,7.63,0,0,1,5.67,4.39,14.41,14.41,0,0,1,1.42,7.62L301.37,333h0.09Z"
       transform="translate(1.15 0.56)"
       style="fill:#fff"
       id="path108" />
    <path
       d="M286.09,322.42a5.74,5.74,0,0,1,1.64-1.25,5.68,5.68,0,0,1,1.81-.6,8,8,0,0,1,.85-0.06,7.7,7.7,0,0,1,.82,0h0.09a0.36,0.36,0,0,1,.17,0,0.42,0.42,0,0,0,.2,0,5.87,5.87,0,0,1,3.4,2.21,6.53,6.53,0,0,1,1.3,4.76l-1,15.65-2.81-.34,0.91-15.16a3.54,3.54,0,0,0-3.06-3.86,3,3,0,0,0-.71,0,3.38,3.38,0,0,0-.74.14,5.21,5.21,0,0,0-1.7.82,5.93,5.93,0,0,0-1.5,1.7l-0.94,15.45-2.83-.37,1.3-21.43,2.83,0.37-0.11,1.93Z"
       transform="translate(1.15 0.56)"
       style="fill:#fff"
       id="path110" />
    <path
       d="M276.46,339.11a10.87,10.87,0,0,1-2.86,1.28,7.19,7.19,0,0,1-2.49.28,5.15,5.15,0,0,1-4-2.21,7.12,7.12,0,0,1-1.33-4.59l0.54-15.25,2.81,0.23-0.51,13.69a5.23,5.23,0,0,0,.94,3.66,3.5,3.5,0,0,0,2.41,1.3,2.09,2.09,0,0,0,.6,0,2.53,2.53,0,0,0,.62-0.09,7,7,0,0,0,1.81-.74,6.62,6.62,0,0,0,1.59-1.36l0.6-15.82,2.81,0.23-0.79,21.46-2.81-.2,0-1.81Z"
       transform="translate(1.15 0.56)"
       style="fill:#fff"
       id="path112" />
  </g>
</svg>
