<svg id="Слой_1" data-name="Слой 1" xmlns="http://www.w3.org/2000/svg" viewBox="0 0 330 276.65"><title>rudn_logo3</title><path d="M172.31,42.76c-90.88,0-165,42.72-165,95.13S81.43,233,172.31,233s165-42.75,165-95.13S263.19,42.76,172.31,42.76ZM293,82.89c-11.39,4.51-25.77,8.16-42.38,10.88a89.83,89.83,0,0,0-50.7-41.92C237.25,55.63,270,67,293,82.89ZM175,58.23a78.89,78.89,0,0,1,64.32,37.25,494.88,494.88,0,0,1-63.13,3.8H175v-41Zm-30.13-6.35A89.92,89.92,0,0,0,95.1,92c-15.53-3.2-28.6-7.37-38.55-12.33C79.22,65.46,110.06,55.4,144.87,51.88Zm22.39,6.46V99.22a422.22,422.22,0,0,1-61-5.1A78.91,78.91,0,0,1,167.26,58.35ZM55.87,195.68c10.15-5.16,23.67-9.5,39.8-12.78a90,90,0,0,0,59.55,41.85C115.84,222.32,80.82,211.56,55.87,195.68Zm111.4,19.93a78.92,78.92,0,0,1-60.32-34.75,422.87,422.87,0,0,1,60.32-5v39.74Zm22.11,9.16a89.76,89.76,0,0,0,60.72-43.62c17.18,2.78,32,6.58,43.68,11.22C268.57,210.05,231.47,222.16,189.37,224.76Zm-14.37-9V175.84h1.19a491.58,491.58,0,0,1,62.47,3.71A79,79,0,0,1,175,215.78Zm126.11-29c-12.73-5.7-28.63-10.49-46.8-14.06,0.09-.21.17-0.43,0.26-0.64a5.61,5.61,0,0,1-.85.07,4.69,4.69,0,0,1-3.17-1.12l-0.08,0-1.18-.37c-0.14,0-.29,0-0.42-0.08a8.48,8.48,0,0,1-1.12-.4l-0.21-.06a4.86,4.86,0,0,1-2.45.62,5.36,5.36,0,0,1-1.42-.19l-0.13.3a413.3,413.3,0,0,0-65.56-5h-3v-0.58a22.06,22.06,0,0,1-4.14-.14c-1.2.12-2.4,0.23-3.6,0.32v0.51a394.58,394.58,0,0,0-65.14,6.75c-0.14-.28-0.27-0.57-0.41-0.85-3.11.58-6.29,0.88-9.25,2.08a3.59,3.59,0,0,1-1.4.26c0.12,0.26.23,0.52,0.35,0.78l0,0c-17.29,4-32.12,9.21-43.57,15.25-19.25-14.46-30.78-32.34-31-51.7h0.87a4.75,4.75,0,0,1-.14-1.09,67.59,67.59,0,0,1,.53-9H17.74c3.12-16.13,14.09-30.93,30.7-43.23C59.72,91,74.15,96.08,90.93,100l-0.08.19a5.45,5.45,0,0,1,1.13.26c3.52,1.19,7.44.78,10.87,2.12a392.27,392.27,0,0,0,61.62,6.54,5.33,5.33,0,0,1,1.48-.2H181.3a5.15,5.15,0,0,1,1.9.35A408.33,408.33,0,0,0,244,104.18l0.2,0.46h0.28a5.19,5.19,0,0,1,1.69-.84C249,103,252,103,255,102.65l-0.18-.45v0C272.46,98.68,288,94,300.49,88.48c13.55,11.11,22.68,24,26,38a4.85,4.85,0,0,1,.38,1.7l0.05,0.22h0v3.07a13.56,13.56,0,0,1,1,6,6.25,6.25,0,0,1-.18,1.06h0.2C327.59,156.34,317.78,172.95,301.11,186.78Z" transform="translate(-7.31 0.56)" style="fill:#fff"/><path d="M255.9,56.82V34.65c0-6.6-1.64-11-4.93-13.24s-8.36-3.34-15.22-3.34H217.15V-0.5H321.49V18.07H302.93c-6.6,0-11.59,1.11-15.05,3.34s-5.13,6.66-5.13,13.24V67.87l-26.87-11Z" transform="translate(-7.31 0.56)" style="fill:#fff"/><polygon points="59.61 130.15 59.61 135.79 64.39 130.15 59.61 130.15" style="fill:#fff"/><path d="M74.06,145.78a3.05,3.05,0,0,0,1.19-2.59,3.16,3.16,0,0,0-1.37-2.69,6.32,6.32,0,0,0-3.78-1,12,12,0,0,0-3.18.61v5.5A9.59,9.59,0,0,0,71,146.68,4.88,4.88,0,0,0,74.06,145.78Z" transform="translate(-7.31 0.56)" style="fill:#fff"/><path d="M66.48,135.76v4.49l0.44-.13v-4.88Z" transform="translate(-7.31 0.56)" style="fill:#82a9e8"/><path d="M64.14,144l-2.5,4.84a18.81,18.81,0,0,0,5.28,2.6v-5.77A19.39,19.39,0,0,1,64.14,144Z" transform="translate(-7.31 0.56)" style="fill:#fff"/><rect x="55.85" y="124.97" width="3.76" height="5.19" style="fill:#fff"/><path d="M277,211.44l-31.89,11.48c-1.25,2.49-2.61,5-4.08,7.34q-14.84,24.15-49.21,24.92-36-.81-48-22.73t-12-56.72V34.62q0-9.86,5.13-13.24t15-3.34h18.59V-0.53l-0.06,0H28.17V18H46.74Q57,18,62,21.36c3.32,2.24,5,6.63,5,13.24v89.82H79.85v4.21L74.28,135a8,8,0,0,1,5.07,2.75,7.83,7.83,0,0,1,1.79,5.09,8.31,8.31,0,0,1-2.91,6.73A11.16,11.16,0,0,1,70.8,152a13.55,13.55,0,0,1-3.88-.59V175.7q0,53.74,25.88,73.9a118.49,118.49,0,0,0,57.12,24.52q7.14,0.81,13.86,1.19c4.48,0.26,9,.51,13.44.79l4-.4q54.17,0,75.68-26.08a111.62,111.62,0,0,0,21.4-39.2ZM127.43,151.67h-6.08V134.51L114,149.41h-3.63L103,134.51v17.16H96.93V124.41h8.23l7,15,7.06-15h8.19v27.26Z" transform="translate(-7.31 0.56)" style="fill:#fff"/><path d="M141.35,144.63a5,5,0,0,0,4.1,1.89,4.93,4.93,0,0,0,4.08-1.89,8.1,8.1,0,0,0,1.5-5.17V124.41h6.08v15.25q0,5.93-3.28,9.11a12.65,12.65,0,0,1-16.79,0q-3.3-3.2-3.3-9.09V124.41h6.08v15.05A8,8,0,0,0,141.35,144.63Z" transform="translate(-7.31 0.56)" style="fill:#fff"/><path d="M169.8,129.85a2.35,2.35,0,0,0-.88,1.91,2.16,2.16,0,0,0,1.07,1.89,19.6,19.6,0,0,0,5,1.66,14,14,0,0,1,6,2.87,7.08,7.08,0,0,1,2.14,5.58,7.36,7.36,0,0,1-2.75,5.95,11,11,0,0,1-7.23,2.28,16.74,16.74,0,0,1-11.66-4.8l3.63-4.45q4.41,3.86,8.15,3.86a4.28,4.28,0,0,0,2.63-.72,2.32,2.32,0,0,0,1-2,2.27,2.27,0,0,0-1-2,13.24,13.24,0,0,0-4-1.46,17.46,17.46,0,0,1-7-2.94q-2.2-1.81-2.2-5.69a7.06,7.06,0,0,1,2.79-6,11.22,11.22,0,0,1,7-2.11,16.75,16.75,0,0,1,5.46.94,14.64,14.64,0,0,1,4.76,2.65l-3.08,4.45a12,12,0,0,0-7.33-2.69A3.66,3.66,0,0,0,169.8,129.85Z" transform="translate(-7.31 0.56)" style="fill:#fff"/><path d="M209,135a4.93,4.93,0,0,0,1-2.83,3.13,3.13,0,0,0-.9-2.28,3.08,3.08,0,0,0-2.3-.92q-2.57,0-4.87,3.67L197,129.79a15.11,15.11,0,0,1,4.19-4.49,10.28,10.28,0,0,1,5.81-1.52,9.35,9.35,0,0,1,6.2,2.24,7.55,7.55,0,0,1,2.67,6.1,8.19,8.19,0,0,1-1.07,4,26.37,26.37,0,0,1-4,4.93L206,146.21h10.76v5.46H197.51v-4.52l8-8.19A34.82,34.82,0,0,0,209,135Z" transform="translate(-7.31 0.56)" style="fill:#fff"/><path d="M232.3,152q-5.66,0-8.46-3.84T221,137.89q0-6.42,2.81-10.26t8.46-3.84q5.65,0,8.46,3.84t2.81,10.26q0,6.41-2.81,10.26T232.3,152Zm-4-20.67a17.52,17.52,0,0,0,0,13.18,4.48,4.48,0,0,0,8,0,17.52,17.52,0,0,0,0-13.18A4.48,4.48,0,0,0,228.28,131.31Z" transform="translate(-7.31 0.56)" style="fill:#fff"/><path d="M247,124.41h11v27.26h-5.85V129.6H247v-5.19Z" transform="translate(-7.31 0.56)" style="fill:#fff"/><path d="M263.31,133.15v-8.74H283V129l-11,22.66h-6.63l10.53-22H269v3.51h-5.69Z" transform="translate(-7.31 0.56)" style="fill:#fff"/></svg>